<?xml version="1.0" encoding="UTF-8"?><svg id="a" xmlns="http://www.w3.org/2000/svg" viewBox="0 0 652.07 490.82"><path d="M652.07,0v490.82H0V0h652.07ZM209.09,75.49c5.21-5.06,5.16-27.2,5.08-34.56-.02-1.47-.68-2.76-.72-4.1-.06-2.03,1-4.18.7-6.9-1.49-13.66-30.81-15.23-40.64-11.69-9.55,3.44-14.03,16.08-14.49,25.45-.53,10.84,11.33,21.97,10.31,30.93-.22,1.91-2.12,6.9-3.38,8.33-3.15,3.58-20.92,6.28-27.32,9.86s-14.42,9.79-10.75,17.83c3,6.58,9.63,13.67,11.43,20.96.55,2.22,1.08,5.14-.18,7.16-1.51,1.1-14.78-4.87-17.13-6.01-1.12-1.76,3.2-16.42,3.36-20.18.05-1.12.2-5.69-2.12-4.17-1.5.98-5.01,13.01-5.31,15.34-.53,4.15.71,7.36.47,10.74-.79,11.5-10.05,32.8-13.83,44.08-4.11,12.26-7.58,24.76-12.45,36.75l-54.56,11.81c-3.03-.1-5.88-7.01-7.66-9.53-1.3-1.84-8.76-13.61-11.65-9.7-3,4.06,2.18,21.81.9,23.96-.38.64-2.91.56-2.66,3.22.2,2.12,2.97,1.73,4.05,3.58,1.66,2.84,3.17,14.31,4.6,18.8,1.76,5.53,1.73,8.41,7.89,10.02,3.32.87,15.18,3.15,16.26-1.04l-1.41-16.56c-7.27-4.22-15.66-5.87-21.66-12.13l.99-2.35-.7-1.35-3.77.69c-.28-1.64,1.07-1.83,2.19-2.27,1.59-.63,10.67-2.91,11.57-1.84.97,3.31-3.34,1.89-4.52,4.12-1.44,2.73,3.98,6.67,6.11,7.69s3.52.95,5.25,1.64c.84.34,1.52,1.67,2.76,2.07,3.1,1.01,5.93-.95,9.02-.8,1.08.84,2.55,11.3,3.47,13.64.26.66,1.14.66,1.31,1.03,2.6,5.57,2.08,7.87,9.29,8.48,6.18.53,12.18-1.22,18.31-.41.86,3.89.86,8.12,1.53,12.23.26,1.62,1.62,8.75,2.23,9.47,2.24,2.68,13.41,1.19,16.39,2.2.88.29,1.23,1.13,1.53,1.92l12.06,185.58-.68,2.08-111.13-.27-1.15,1.94h114.64c1.34-2.98-.24-7.71-.33-10.67-1.69-52.04-6.4-104.25-9.65-156.25-.49-7.91-2.07-15.77-1.37-23.76l5.56.3c.49.34,1.19,6.81,1.33,8.31,3.95,44.84,5.71,89.99,8.95,134.92.45,6.23-.13,13.89.64,20,.17,1.32,1.32.66,1.49,1.97.22,1.71.22,6.66,0,8.35-.16,1.23-1.24.9-1.38,1.51-.5,2.12-1.4,8.21-1.33,10.18.1,3.17,3.95,4.85,5.16,7.8,7.08-.02,14.21.33,21.29.12,110.49-3.33,221.32-4.16,331.83-5.56,17.83-.23,38.46,1.49,55.83.06,1.68-.14,3.47-.31,4.82-1.38,1.19-3.07-.31-6.34-.4-9.29-1.04-34.62.74-69.47,1.43-103.95.46-23.06-.2-46.22,1.35-69.21l8.27.34c1.38.82,2.52,12.69,2.74,15.16,2.63,29.07,2.68,62.18,2.79,91.52.1,25.68-1.01,51.37-1.32,77.04.36,1.07,2.16,1.47,3.17,1.65,12.05,2.14,32.28,1.34,45.24,1.58,3.23.06,21.03.41,22.42-.37s-.07-1.58-1.04-1.74c-2.8-.44-6.66.2-9.67.03-15.55-.86-31.27-.39-46.8-1.4-2.6-.17-8.09.57-9.98-.35-2.88-1.4-.72-7.76-.66-10.3,1.15-48.45,1.92-102.63-1.41-150.78-.31-4.49-1.42-19.83-3.15-23.01-2.61-4.8-11.06,1.69-10.62-5.56,10.07-.61,20.62.02,30.63-1.39,7.29-1.03,14.12-2.9,13.38-11.95-.31-3.86-3.48-11.26-7.48-12.52-2.13-.67-4.35-.06-6.5-.39-8.05-1.22-13.38-1.55-21.46-1.95-58.59-2.96-117.65-.48-176.27-3.44-6.38-1.38-13.58-.33-19.94-1.41-.91-.15-1.94-.66-1.72-1.7,4.75-3.57,8.6-6.01,10.85-11.87,1.27-3.32,2.79-10.28-2.98-7.8-5.31,5.37-8.43,11.68-11.11,18.67-8.26,3.79-17.65,5.04-26.69,5.49-47.57,2.38-96.43-6.33-143.24-3.46-14.06.86-28.2,3.53-42.26,4.02-1.91-3.51,1.28-8-3.93-8.8-2.44-.37-7-.21-9.58-.04-14.35.97-29.13,6.73-43.73,6.18,3.01-2.81,8.65-3.1,12.63-3.55l.84-.54.31-2.1c-4.48-1.24-30.45-1.4-32.36-3.46-.98-1.06.31-1.18.88-1.54,2.57-1.62,9.5-3.47,12.75-4.45,46.04-13.83,97.35-17.67,145.08-22.23,19.7-1.88,41.11-3.18,60.5-6.29,1.82-.29,6.22-.76,7.52-1.43s1.39-2.63,2.88-2.64c.72,0,9.67,5.75,12.61,6.72,18.06,5.93,38.88,6.86,56.44,15.91l1.92-.54c2.39-30.42,8.34-60.58,7.19-91.23-1.69-10.11-9.01-49.9-19.76-52.52-3.66-.89-6.63-.58-9.55-4.22-4.51-5.64,3.59-15.88,5.73-21.91,3.27-9.2,2.58-15.61-.32-24.8-1-3.18-4.13-10.79-6.37-12.91-7.47-7.07-38.62-6.52-46.33-.34-5.99,4.8,1.51,8.79,1.54,10.67.01.96-2.19,6.42-2.56,8.46-1.35,7.63-3.1,25.82.14,32.53,4.89,10.12,25.55.56,27.16,14.16,1,8.43-11.42,20.59-15.22,28.72-.92,1.96-2.19,4.81-2.82,6.82-2.02,6.44-1.9,15.71-5.68,21.17-3.7,5.33-19.1,10.48-24.78,14.47-3.06-.38,2.37-3.63,3.4-4.86,1.1-1.32,2.92-3.73,2.14-5.43-1.2-2.64-10.7-10.02-13.22-12.65-11.82-14.37-24.97-33.05-39.47-44.87-7.78-6.34-17.34-5.64-26.86-6.53l.35,6.88c-3.23-5.4-9.41-7.7-6.93-15.18,1.1-1.58,9.42.77,13.24-2.94Z" style="fill:#fff;"/><path d="M209.09,75.49c-3.82,3.71-12.14,1.36-13.24,2.94-2.47,7.48,3.7,9.79,6.93,15.18l-.35-6.88c9.52.88,19.09.18,26.86,6.53,14.49,11.82,27.65,30.5,39.47,44.87,2.52,2.63,12.02,10,13.22,12.65.78,1.7-1.04,4.11-2.14,5.43-1.03,1.24-6.47,4.48-3.4,4.86,5.68-3.99,21.08-9.14,24.78-14.47,3.78-5.45,3.66-14.73,5.68-21.17.63-2.01,1.9-4.86,2.82-6.82,3.8-8.12,16.22-20.28,15.22-28.72-1.61-13.61-22.27-4.04-27.16-14.16-3.24-6.7-1.5-24.9-.14-32.53.36-2.05,2.57-7.51,2.56-8.46-.03-1.88-7.53-5.87-1.54-10.67,7.72-6.19,38.86-6.74,46.33.34,2.24,2.12,5.37,9.73,6.37,12.91,2.9,9.19,3.59,15.6.32,24.8-2.15,6.03-10.24,16.28-5.73,21.91,2.91,3.65,5.89,3.33,9.55,4.22,10.75,2.63,18.07,42.41,19.76,52.52,1.15,30.65-4.8,60.81-7.19,91.23l-1.92.54c-17.56-9.06-38.38-9.98-56.44-15.91-2.94-.97-11.89-6.72-12.61-6.72-1.49,0-1.53,1.94-2.88,2.64s-5.7,1.14-7.52,1.43c-19.39,3.11-40.81,4.4-60.5,6.29-47.73,4.56-99.04,8.41-145.08,22.23-3.25.98-10.18,2.82-12.75,4.45-.56.36-1.86.48-.88,1.54,1.92,2.06,27.88,2.22,32.36,3.46l-.31,2.1-.84.54c-3.97.44-9.61.74-12.63,3.55,14.6.55,29.38-5.21,43.73-6.18,2.58-.17,7.15-.34,9.58.04,5.22.8,2.02,5.29,3.93,8.8,14.05-.5,28.19-3.16,42.26-4.02,46.81-2.87,95.67,5.84,143.24,3.46,9.04-.45,18.43-1.7,26.69-5.49,2.68-6.99,5.81-13.3,11.11-18.67,5.77-2.48,4.25,4.48,2.98,7.8-2.25,5.87-6.1,8.31-10.85,11.87-.22,1.04.81,1.55,1.72,1.7,6.35,1.07,13.56.03,19.94,1.41,58.63,2.96,117.68.48,176.27,3.44,8.08.41,13.41.74,21.46,1.95,2.15.33,4.37-.28,6.5.39,4,1.26,7.17,8.66,7.48,12.52.74,9.04-6.09,10.92-13.38,11.95-10.02,1.41-20.56.78-30.63,1.39-.44,7.25,8.01.76,10.62,5.56,1.73,3.18,2.84,18.52,3.15,23.01,3.33,48.14,2.57,102.33,1.41,150.78-.06,2.54-2.23,8.9.66,10.3,1.89.92,7.38.18,9.98.35,15.53,1.01,31.25.54,46.8,1.4,3.01.17,6.87-.48,9.67-.03.97.15,2.4.98,1.04,1.74s-19.19.42-22.42.37c-12.96-.24-33.19.56-45.24-1.58-1.01-.18-2.81-.58-3.17-1.65.3-25.67,1.42-51.36,1.32-77.04-.11-29.33-.16-62.45-2.79-91.52-.22-2.47-1.36-14.34-2.74-15.16l-8.27-.34c-1.54,22.99-.88,46.15-1.35,69.21-.69,34.48-2.48,69.33-1.43,103.95.09,2.96,1.59,6.22.4,9.29-1.35,1.06-3.14,1.24-4.82,1.38-17.37,1.44-38-.28-55.83-.06-110.51,1.4-221.35,2.23-331.83,5.56-7.07.21-14.21-.14-21.29-.12-1.21-2.95-5.05-4.63-5.16-7.8-.06-1.97.83-8.06,1.33-10.18.14-.61,1.22-.28,1.38-1.51.22-1.7.22-6.65,0-8.35-.17-1.32-1.32-.66-1.49-1.97-.78-6.12-.19-13.77-.64-20-3.24-44.94-5-90.08-8.95-134.92-.13-1.5-.83-7.97-1.33-8.31l-5.56-.3c-.7,7.99.88,15.85,1.37,23.76,3.26,52,7.96,104.21,9.65,156.25.1,2.96,1.68,7.69.33,10.67H8.27s1.15-1.94,1.15-1.94l111.13.27.68-2.08-12.06-185.58c-.29-.79-.65-1.62-1.53-1.92-2.98-1-14.15.48-16.39-2.2-.61-.73-1.97-7.86-2.23-9.47-.67-4.12-.67-8.34-1.53-12.23-6.13-.8-12.14.94-18.31.41-7.2-.61-6.69-2.91-9.29-8.48-.17-.37-1.05-.37-1.31-1.03-.92-2.35-2.39-12.8-3.47-13.64-3.09-.15-5.92,1.81-9.02.8-1.23-.4-1.92-1.73-2.76-2.07-1.72-.69-3.2-.65-5.25-1.64s-7.56-4.97-6.11-7.69c1.18-2.23,5.49-.81,4.52-4.12-.9-1.06-9.98,1.21-11.57,1.84-1.12.45-2.48.63-2.19,2.27l3.77-.69.7,1.35-.99,2.35c6,6.26,14.39,7.91,21.66,12.13l1.41,16.56c-1.08,4.18-12.94,1.9-16.26,1.04-6.15-1.61-6.13-4.49-7.89-10.02-1.43-4.5-2.94-15.96-4.6-18.8-1.09-1.86-3.85-1.46-4.05-3.58-.26-2.66,2.27-2.58,2.66-3.22,1.29-2.15-3.9-19.91-.9-23.96,2.89-3.91,10.35,7.87,11.65,9.7,1.78,2.52,4.63,9.43,7.66,9.53l54.56-11.81c4.87-11.99,8.34-24.49,12.45-36.75,3.78-11.28,13.04-32.57,13.83-44.08.23-3.38-1.01-6.59-.47-10.74.3-2.33,3.81-14.36,5.31-15.34,2.32-1.52,2.17,3.05,2.12,4.17-.16,3.76-4.48,18.42-3.36,20.18,2.35,1.15,15.62,7.11,17.13,6.01,1.26-2.02.73-4.93.18-7.16-1.79-7.28-8.43-14.38-11.43-20.96-3.67-8.05,4.25-14.2,10.75-17.83s24.17-6.27,27.32-9.86c1.26-1.43,3.16-6.42,3.38-8.33,1.02-8.96-10.84-20.09-10.31-30.93.46-9.37,4.94-22.01,14.49-25.45,9.82-3.54,39.15-1.98,40.64,11.69.3,2.72-.76,4.87-.7,6.9.04,1.35.7,2.64.72,4.1.08,7.36.13,29.5-5.08,34.56ZM212.07,30.29c-3.16-12.48-28.86-13.35-38.36-9.79-10.36,3.89-13.38,20.09-11.89,29.76,1.39.18,1.13.12,1.55-.86.99-2.35.78-4.54,2.28-7.36,6.3-11.78,29.5-25.58,41.84-15.76,1.8,1.43,2.52,3.59,4.59,4.01ZM344.04,26.4c-.44-.48-2.81-2.19-3.4-2.45-8.25-3.66-27.58-2.87-36.14-.04-2.85.94-7.89,3.03-5.03,6.79,1.84,2.41,3.27-.29,4.86-.76,9.76-2.87,35.23,2.61,41.91,10.44,5.74,6.74,2.97,14.47,2.51,22.26,5.29-8.41,2.61-17.83-.33-26.51-.9-2.67-2.61-7.8-4.39-9.73ZM208.43,34.9c2.39-2.76-2.32-7.59-4.82-8.88-11.43-5.92-34.46,9.51-37.67,21.12l5.55.04c1.11-1.3,1.38-3.13,2.39-4.48.77-1.03,2.36-1.45,2.74-2.08.82-1.4-.39-4.11,1.47-4.74s8.4,1.16,10.93,1.29c4.16.21,16.78.79,19.41-2.26ZM322.94,55.76c5.09-2.21,9.61,2.94,8.92,7.86-.28,1.99-1.97,3.8-2.62,5.69,1.69,3.26,7.67,6.54,11.19,4.28,4.09-2.63,7.8-19.99,7.11-24.88-1.31-9.3-11.55-12.65-19.48-14.94-4.42-1.27-19.54-4.18-23.02-1.76l-.66,2.37,5.46,2.13c-.23,3.16-2.37,2.92-.28,6.13,3.68,5.66,14.07,4.26,13.39,13.12ZM319.3,51.13c-2.31-2.29-10.06-2.92-12.38-8.62-1.1-2.71.33-5.53-3.73-6.63-2.6-.24-3.99,11.14-4.27,13.43-.83,6.88-1.39,16.43.08,23.16,2.5,11.45,21.88,2.17,26.6,13.33,4.21,9.95-3.92,18.59-8.98,26.67-5.17,8.26-6.71,10.06-9.35,20.22-1.19,4.59-4.27,14.05-4.82,17.9-.2,1.39-.99,11.53-.8,12.1.35,1.06,1.26,1.28,2.25,1.12l23.16-4.8c.23-1.31-1.08-2.12-1.28-3.26-1.91-10.63,5.4-27.34,6.78-39.09,1.02-8.73-1.95-17.3,10.31-19.3,8.99-1.46,14.87-.76,18.29,7.95,1.3,3.3,2.23,7.45,2.43,11.32.36,6.72.15,16.13-.67,22.8-.16,1.26-1.29.9-1.42,1.46-.45,1.93.45,4.58-.15,6.62-.34,1.12-2.2,2.18-2.96,3.92-1.66,3.81-2.63,10.14-4.15,14.43-1.8,5.09-5.03,16.88-9.96,18.96-8.88,3.74-34.64,3.19-45.14,3.13-9.94-.06-28.78-2.63-37.77.04-8.14,2.42-9.05,13.99-23.29,9.37-2.11-.68-3.34-2.11-5.35-2.56-.32,3.95.3,17.37-1.76,19.92-.78.97-2.68,1.34-3.06,2.78,21.83-1.76,43.74-3.62,65.38-6.91.49-1.25-1.01-5.1,1.07-4.8,2.47.35,8.59,5.62,11.58,7.02,9.96,4.66,25.31,5.9,36.42,9.02,5.87,1.65,15.99,6.56,21.03,7.24.97.13,1.88.42,2.62-.52l5.12-43.07c3.51-28.84,3.64-59.43-9.58-85.55-1.85-3.65-2.92-9.47-7.98-9.82-4.31-.3-9.27,4.05-13.44,5.87-1.64.72-9.97,4.1-10.99,3.12-.16-1.06.01-1.6.64-2.45,2.16-2.89,17.93-6.94,17.93-8.22-5.08-3.27-6.21-7.67-4.81-13.42-2.77,1.26-4.59,1.89-7.76,1.21-1.25-.27-7.9-4.49-8.44-5.35-1.46-2.3,3.98-5.71,2.98-9.79-.29-1.18-2.09-3.78-3.64-3.28-1.26.37-.9,5.36-3.79,4.81-.13-2.56-1.29-9.87-2.95-11.51ZM217.24,89.49c-3.7-.49-8.24.35-12.05,0,1.67,10.14,5.35,17.99-8.53,16.45-4.45-.49-21.99-7.24-24.88-10.23-1.77-1.83-5.23-7.81-1.37-8.97,1.75,1.3,2.55,3.39,4.15,4.81,4.43,3.93,19.82,10.59,25.1,7.2,4.66-2.99-4.59-9.73-5.65-12.19s.11-5.81-.85-7.41-8.76-2.12-11.05-4.1c-2.01-1.74-4.76-10.62-.78-9.56.8.21,6.31,5.78,8.24,6.92,7.04,4.11,17.52,6.36,20.24-3.44s2.59-22.4,1.58-32.5c-2.57.1-4.07,2.15-6.7,2.59s-5.51-.23-8.17.79l-16.34-1.33c-.65,3.46-4.29,5.16-5.5,7.1-1.54,2.47-.93,5.44-1.86,8.06l-4.12-3.43c.16,4.33,7.74,11.55-.69,11.7,1.56,4.46,3.78,6.97,3.48,12.07-.15,2.62-2.39,9.16-4.15,11.01-2.62,2.74-17.91,5.27-22.65,6.96-5.1,1.82-14.95,7.7-15.19,13.73-.41,10.07,15.21,21.75,12.35,33.33,1.56.4,1.62-.61,1.87-1.88.86-4.34-.74-8.05,2.11-12.38.97-1.48,3.12-2.58,3.43-.57s-3.59,12.48-3.97,15.86c-2.14,19.03-2.4,41.07-3.47,60.55-.06,1.12-.67,5.48,1.07,5.2,4.45-.71.74-9.27,4.97-11.56,2.48-1.35,8.06-2.16,11.05-2.72,10.74-2.02,21.94-2.47,32.67-4.51.76-.14,9.97-2.09,8.8-3.25l-29.84-1.32-.84-1.38,1.18-2.34c15.28-11.54,32.52-20.02,45-34.88,5.73-6.82,8.65-12.66,11.32-21.03,1.16-3.62,1.69-12.75,5.57-14.45s13.42,8.9,17.18,10.69c1.11-1.22-4.86-5.83-5.5-6.54-7.16-7.91-15.99-21.59-27.2-23.06ZM204.5,95.69c-2.59.02-.64,2.95-3.18,4.73-2.69,1.89-6.23,1.12-9.21,1.8,7.63,3.43,14.36,4.54,12.39-6.53ZM327.76,149.38c1.1,1.11,26.43-8.16,30.59-4.89l.75-.59c1.19-8.68,2.33-18.47,1.7-27.21-.29-4-1.65-14.58-5.53-16.5-4.45-2.2-16.5-1.48-19.16,3.5-1.87,3.5-.45,5.43-.75,8.14-1.43,12.76-5.54,24.91-7.59,37.55ZM239.62,148.01c1.38-1.43,7.95,7.52,10.57,7.52,6.11-5.15,8.25-13.08,13.55-18.88,0-1.04-11.3-12.17-13.1-13.78-3.02-2.7-11.82-10.34-14.92-11.93-3.4-1.75-3.49-.11-4.56,2.8-4.48,12.22-.71,25.34.18,38.06.47,6.67.39,13.61.7,20.3.64.63,7.73-1.39,9.33-1.4,2.57-.02,4.22,1.03,7.37.54,1.79-.27,10.13-3.22,11.72-4.11.9-.5,1.41-.73,1.18-1.91-3.81.03-8.43-5.16-11-5.94-1.64-.5-2.95.63-4.46.44-2.98-.36-7.17-8.62-6.57-11.72ZM129.19,177.35c5.65-10.87,8.32-22.23,9.81-34.36-.6-2.25-11.66-5.31-14.36-6.35-1.39-.53-2.48-2.5-3.84-1.09l-25.77,79.22,14.96-2.95c6.24-10.96,12.08-22.15,17.9-33.35.39-.75,1.21-.94,1.31-1.13ZM226.54,134.92v41.3c5.3-.15,2.81-6.31,2.76-9.3-.16-9.81-.19-19.86-1.36-29.62-.12-1.04-.13-2.12-1.4-2.38ZM223.78,137.67c-.93-.02-1.34-.23-2.1.46-1.27,1.16-4.06,6.45-5.81,8.5-12.02,14.08-29.25,22.22-43.72,33.38.71,1.04,1.22,1.03,2.37,1.05,8.71.21,17.99-.63,26.8.75,1.63.26,6.67,1.06,3.88,3.72s-36.39,6.22-42.84,7.42c-3.11.58-13.05,1.78-14.15,4.44-.38.91-1.21,6.71-.86,7.06l81.25-13.78c-1.33-2.57-4.53-2.08-6.89-2.05.15-1.38-.27-3.05.01-4.35.15-.67,2.45-2.91,2.77-6.99,1.01-12.88-1.72-26.6-.72-39.61ZM272.91,145.01c-1.6-1.5-5.09-6.89-7.8-5.63-3.45,1.6-4.85,6.65-6.6,9.28-2.01,3.03-4.31,5.67-6.47,8.57.28,1.35,8.44,5.72,10.02,5.91,3.94.48,17.15-6.83,17.53-10.69.24-2.48-4.96-5.82-6.68-7.43ZM113.62,211.33c7.01-1.48,14.42-2.05,21.37-3.76,1.42-.35,4.18-.71,4.68-2.2.77-17.9,2.38-35.69,2.87-53.58.07-2.55,2.06-6.25-.35-8.6-1.17.04-3.67,15.56-4.25,17.76-4.14,15.73-13.85,28.51-21.24,42.79-.59,1.15-3.77,6.9-3.08,7.58ZM332.58,151.44c6.44-.36,15.49-.28,21.63-2.11,2.99-.89,3.53-3.25.06-3.45-3.14-.18-14.09,2.68-17.71,3.7-.95.27-3.63.94-3.98,1.86ZM355.98,151.45l-26.4,2.86c-1.75.84-1.53,2.23-.04,3.27,1.92,1.35,7.26-.79,7.15,1.1-.16,2.59-19.61,5.15-22.86,6.05-3.98,1.11-27.03,11.05-28.77,9.44-.38-1.24,1.97-4.37-.35-4.14l-28.32,6.81c-5.16.76-10.47-1.5-15.59-.44-2.03.42-8.77,5.1-8.79,7.07-.03,3.81,5.53-1.26,6.22,1.39.74,2.84-3.93,3.16-4.82,5.14,3.16.33,12.97-2.45,15.17-1.05,1.39.88.57,1.69-.5,2.3-2.11,1.21-7.28,1.72-9.85,2.2,1.42,4.43,8.92,2.39,12.07.71,4.17-2.23,6.7-7.75,11.72-8.94,22.09-1.17,45.55,1.43,67.47,0,3.15-.21,13.83-1.65,15.83-3.45,1.56-1.4,11.82-29.2,10.64-30.31ZM297.46,152.82c-.69-.7-14.16,7.49-16.05,8.39-10.15,4.82-21.39,7.51-31.45,12.61l3.07,1.08,35.29-8.1c1.18-1.71,10.37-12.71,9.13-13.98ZM300.21,155.58c-1.78-.41-1.2.53-1.77,1.3-1.77,2.39-3.18,5.05-5.05,7.38l.95,1.56,5.1-1.38.77-8.86ZM297.46,167.97c-2.66.13-7.7-1.03-8.26,2.74,1.17.19,2.2-.2,3.3-.48,1.29-.33,4.28-1.07,4.96-2.26ZM239.62,173.48c-2.13-.42-8.39.58-7.57,3.77.61,2.38,5.05-1.32,6.2-2.07.81-.53,1.78.17,1.37-1.7ZM229.98,178.3c-.96-1.12-3.31,2.8-3.6,3.63-1.75,5.16,5.17-.14,3.6-3.63ZM146.83,212.19c-.61,1.97-2.7,7.21.18,7.45,1.24.1,12.21-4.3,15.06-4.95,20.66-4.71,41.67,5.02,62.57.6,9.63-2.04,3.34-10.77,5.98-17.97-.62-2.14-6.56-.54-8.35-.23-25.22,4.36-50.19,10.79-75.43,15.11ZM209.32,196.89c-5.79.32-11.64,1.32-17.35,2.26-13.9,2.28-28.28,4.55-42.03,7.55-1.35.29-3.52.7-3.27,2.58l62.65-12.38ZM139.09,209.27c-.97-.86-22.83,3.59-25.5,4.45-2.87.93-5.29,3.23-.64,2.81,2.7-.24,24.1-4.41,25.14-5.17.7-.51,1.18-1.17.99-2.1ZM21.4,230.55c2.09.08,11.71-1.39,11.69-3.72-.01-1.12-10.9-17.23-12.77-16.87-1.32.94-1.14,2.38-1.09,3.79.18,5.21,1.79,11.46,2.17,16.8ZM142.2,212.71c-1.27.29-1.92,6.43-1.97,7.73-.02.61-.62,1.67.6,1.91,2.8.54,4.52-10.34,1.38-9.63ZM138.4,214.09l-29.82,5.64-3.89,4.52-6.22,10.49,37.84-8.63c2.3-1.3,2.07-9.44,2.09-12.02ZM107.41,215.47c-.73-.61-12.68,1.54-13.75,2.43-.95.79-.78,1.27-.71,2.38,1.2.02,17.26-2.45,14.45-4.81ZM206.57,218.23c-12.51.2-24.99-3.82-37.44-2.67-4.49.41-20.34,4.81-23.51,7.47-1.68,1.41-1.79,3.48-4.46,3.8l2.2.9c13.59-2.2,27.24-5.08,40.92-6.66,5.39-.62,11-.37,16.35-.86,1.61-.15,5.22-.4,5.94-1.97ZM89.99,217.94l-51.84,11.13.64,2.97,51.84-11.13-.64-2.97ZM103.97,220.98l-12.1,2.01-8.55,12.44c11.51.23,16.48-4.32,20.65-14.45ZM86.44,223.84c-5.37,1.77-43.33,8.04-44.83,10.17-.69.98,2.23,6.4,3.11,7.3,1.79,1.82,10.76.92,13.8.63,2.89-.28,17.71-2.39,18.9-3.8.47-.55.51-1.7,1.07-2.38,2.88-3.53,6.81-6.26,8.87-10.42l-.92-1.5ZM41.31,240.93c-.45-3.84-3.17-8.62-6.88-4.46-.3,1.25,6.17,5.18,6.88,4.46ZM46.83,266.41l-1.03-15.15c-7.84-4.06-16.17-6.36-22.38-13.07.63,5.45,2.9,21.18,6.17,25.15,2.48,3.01,13.4,3.23,17.24,3.08ZM368.38,238.87c-1.33-1.5-4.9,5.42-5.29,6.02-1.16,1.8-3.67,3.03-2.96,6.36,4.67-2.57,8.24-6.87,8.25-12.39ZM72.98,242.32l-15.12,2.08c-.19.21.5,4.91.72,5.64.18.57,1.1.54,1.26,1.07,1.38,4.76,1.82,13.62,7.59,15,6.09-.2,13.77.26,19.67-.39,2.65-.29,4.44-1.79,6.87-2.08,6.45-.77,14.64.37,21.39.05,7.97-.38,16-1.72,23.97-2.19l1.04-1.03v-5.66c-1.04-1.67-12.9-.3-15.31-.01-11.43,1.37-26.22,6.08-37.3,6.13-2.17,0-9.09-.74-7.08-4.04,2.03-1.15,4.26-1.51,6.44-2.16.99-.29,1.21.42,1.01-1.39-3.71-.86-23.03-1.06-24.06-4.56-.28-.97.21-1.78.97-2.35l7.94-4.1ZM335.33,262.96h73.68l-7.93-1.37c-12.69-1.78-29.73.6-41.86-2.21-1.54-.36-2.33-1.96-4.25-1.98s-3.3,1.48-5.02,1.93c-4.13,1.09-8.42,1.55-12.55,2.61-.79.2-2.23-.05-2.07,1.02ZM277.49,262.28c-18.44-1.44-36.92-2-55.42-2.77-11.99-.5-22.94-1.4-35.12-.67-11.36.68-22.7,2.95-34.09,3.44.41,1.54,1.85,1.31,3.06,1.41,13.14,1.05,26.87-.63,39.94-.76,26.17-.26,53.2,1.1,79.22.03.84-.03,2.56.52,2.4-.68ZM142.53,266.75v11.36l92.61.69c2.77.5,2.21,4.41,3.02,6.49,82.69.61,165.58-2.07,248.34-2.33,26.21-2.09,53.62-.05,79.84-2.1,5.06-.4,12.23-2.35,15.12-6.91,2.41-3.8-.16-6.86-4.13-7.51-15.9-2.6-38.98-.47-55.77-.69-108.82-1.43-218.22-1.19-327.04.04-14.92.17-35.29-1.78-49.61-.1-1,.12-1.77.09-2.37,1.07ZM139.78,278.11l.39-11.75-.83-.55c-8.67.09-17.43-.45-26.1-.12-5.9.22-14.22.63-19.97,1.37-.81.1-1.41.11-2.1.65-2.83,2.23.92,16.94,1.95,20.56.91.94,13.77,2.11,15.03,1.24,2.06-3.26-1.66-8.59,3.22-9.86,8.03-2.09,19.88-.45,28.42-1.54ZM238.93,287.74c-.64,4.71.91,5.19,5.14,5.54,33.5,2.73,70.24-2.69,103.97.69h195.62s2.08-.68,2.08-.68l.39-4.43,1.04-1.03c7.93-.54,16.1.39,24-.1,3.44-.22,11.87-1.15,14.81-2.4,7.09-3.03,3.79-15.31-1.71-18.25.41,4.35.66,7.05-2.77,10.33-8.77,8.38-37.25,5.79-49.6,6.17-81.04,2.51-162.57,3.28-243.7,4.19-16.42.18-32.86-.19-49.26-.03ZM141.78,280.17v6.92h45.58v-6.92h-45.58ZM235.49,285.68c-.07-1.85.72-4.55-1.72-4.82l-43.76-.38c-1.82,1.24.25,5.74,2.46,5.87l43.02-.67ZM139.78,280.86h-23.07c-.24,0-4.45.7-4.72.79-1.51.46-3.12,8.94,2.66,8.92,3.57,0,2.51-1.66,3.79-2.48,2.19-1.4,16.31.5,20.21-1.13l1.04-1.03.1-5.07ZM236.87,292.56c.03-2.54-.18-4.53-3.06-4.86-12.97-1.48-28.54,1.71-41.71,1.06-1.94,1.21.57,3.8,1.74,3.8h43.04ZM186.6,288.43c-8.6.22-17.25-.28-25.85-.02-1.63.05-3.13.68-4.76.75-1.86.08-14.13-.73-14.13,1,.83,1.26,1.82.97,3.05,1.06,4.48.35,8.73.15,13.09.69l28.61-.03v-3.45ZM139.09,291.18l-1.72-2.08-9.29.71,7.23,1.36h3.78ZM129.44,419.91c5.55-41.38,8.39-83.15,9.65-124.94l-.65-1.42c-3.95-.65-8.09-.2-12.12-.27-2-.03-4.95-1.82-6.17.66-.86,1.73.86,12.61,1.03,15.49,1.83,31.25,4.05,62.41,6.2,93.62.36,5.28.02,10.41.7,15.83.12.95.34,2.02,1.36,1.02ZM176.01,366.67c5.41-19.87,8.59-36.53,9.9-57.24.29-4.63.35-9.51.39-14.15-1.42-2.03-33.63-1.21-38.63-1.3-2.28-.04-4.6-1.84-6.17.66l-3.1,64.36c-1.91,24.51-6.41,49.12-7.56,73.67-.22,4.78-.63,13.46-.04,17.93,1.03,7.78,4.73-1.71,6.72-2.3,3.99-1.19,13.71,3.38,15.99.15,7.34-26.94,14.12-54.04,21.46-80.98.14-.5,1-.62,1.04-.79ZM198.55,326.08c-2.02-8.03-4.32-22.67-7.31-29.55-.36-.82-.87-1.34-1.54-1.89l-.94,1.11c-1.46,14.53-1.27,29.38-3.71,43.79-2.08,12.29-6.95,24.73-10.09,36.17-6.69,24.42-13.08,48.95-19.3,73.51-3.18,7.63-20.07-5.1-19.33,5.8,4.02,1.72,17.25-.57,19.62,1.39,3.58,2.97,10.11,20.22,7.27,25.19l1.1,1.6,379.64-5.45,1.38-181.05-305.07-1.05c-.9.55-.39,1.12-.37,1.74.45,13.9,6.46,30.01,5.17,44.45,2.85,7.18,1.12,17.8,1.4,26.14.46,13.66,1.77,27.54,2.12,41.25.16,6.29,1.03,23.53-2.06,28.11-.67,1-4.45,2.55-4.16,4.26s5.99-.66,7.38.89c9.32,5.14,20.76,9.18,29.32,15.42,5.27,3.84,9.09,8.42-.56,9.51-10.76,1.21-40.3.51-49.61-4.1-4.3-2.13-9.16-14.18-2.38-16.21-.9-2.16-5.79.9-7.52-4.18-3.31-21.18-7.72-42.21-10.95-63.4-2.99-19.65-4.69-34.3-9.51-53.45ZM237.49,295.39l-44-.76c-.8.81,4.17,19.5,4.89,22.18.13.49,1.08.43,1.37,1.54,10.47,39.76,11.64,81.52,20.91,121.57.69,2.99.82,3.72,4.15,4.11,8.6,1.01,16.33-1.34,20-9.64.4-.91.1-2.09.37-2.94.2-.64,1.23-.27,1.39-1.5.4-3.02.38-12.89,0-15.93-.17-1.32-1.32-.66-1.49-1.97-.69-5.46.33-12.86.08-18.66-1.07-25.43-.99-51.05-4.26-76.28-.94-7.25-2.29-14.49-3.41-21.71ZM281.63,464.66c.27-1.37-.29-1.84-1-2.79-2-2.67-29.17-17.24-32.58-17.74-2.14-.31-9.07.76-11.33,1.45-1.37.41-11.46,4.47-11.6,5.09.33,3.97,1.86,9.57,5.91,11.22,9.26,3.77,22.54,2.42,32.35,4.14l18.25-1.37ZM134.36,457.18c-3.19,7.64-2.86,17.13-.79,25.04,4.72,2.42,8.9,1.15,13.45,1.03,3.73-.11,11.97,1.01,14.16-2.37,3.15-4.87-3.68-18.35-6.94-22.76l-19.87-.94Z"/><path d="M198.55,326.08c4.83,19.15,6.52,33.8,9.51,53.45,3.23,21.19,7.65,42.21,10.95,63.4,1.73,5.08,6.62,2.03,7.52,4.18-6.78,2.03-1.92,14.08,2.38,16.21,9.32,4.61,38.85,5.31,49.61,4.1,9.65-1.09,5.83-5.67.56-9.51-8.56-6.24-20-10.28-29.32-15.42-1.4-1.55-7.11.78-7.38-.89s3.49-3.26,4.16-4.26c3.09-4.58,2.22-21.82,2.06-28.11-.35-13.71-1.66-27.59-2.12-41.25-.28-8.34,1.45-18.96-1.4-26.14,1.29-14.44-4.72-30.55-5.17-44.45-.02-.63-.52-1.2.37-1.74l305.07,1.05-1.38,181.05-379.64,5.45-1.1-1.6c2.84-4.97-3.69-22.22-7.27-25.19-2.37-1.96-15.6.33-19.62-1.39-.74-10.9,16.15,1.83,19.33-5.8,6.21-24.56,12.6-49.08,19.3-73.51,3.14-11.45,8.01-23.88,10.09-36.17,2.44-14.41,2.25-29.26,3.71-43.79l.94-1.11c.67.55,1.19,1.07,1.54,1.89,2.99,6.88,5.28,21.52,7.31,29.55Z" style="fill:#fff;"/><path d="M217.24,89.49c11.21,1.47,20.04,15.15,27.2,23.06.64.71,6.61,5.32,5.5,6.54-3.76-1.79-13.38-12.35-17.18-10.69s-4.41,10.83-5.57,14.45c-2.68,8.38-5.6,14.22-11.32,21.03-12.48,14.86-29.73,23.34-45,34.88l-1.18,2.34.84,1.38,29.84,1.32c1.17,1.15-8.03,3.1-8.8,3.25-10.73,2.04-21.93,2.48-32.67,4.51-2.99.56-8.57,1.37-11.05,2.72-4.23,2.29-.52,10.85-4.97,11.56-1.74.28-1.13-4.09-1.07-5.2,1.06-19.48,1.32-41.53,3.47-60.55.38-3.37,4.27-13.91,3.97-15.86s-2.46-.91-3.43.57c-2.85,4.34-1.25,8.04-2.11,12.38-.25,1.26-.31,2.28-1.87,1.88,2.86-11.58-12.76-23.26-12.35-33.33.25-6.03,10.1-11.91,15.19-13.73,4.74-1.69,20.03-4.22,22.65-6.96,1.76-1.84,4-8.39,4.15-11.01.3-5.09-1.92-7.6-3.48-12.07,8.43-.16.85-7.38.69-11.7l4.12,3.43c.93-2.62.32-5.59,1.86-8.06,1.21-1.94,4.84-3.65,5.5-7.1l16.34,1.33c2.66-1.02,5.47-.33,8.17-.79s4.13-2.49,6.7-2.59c1.02,10.1,1.17,22.62-1.58,32.5s-13.21,7.55-20.24,3.44c-1.94-1.13-7.44-6.7-8.24-6.92-3.98-1.06-1.23,7.82.78,9.56,2.29,1.98,10.05,2.42,11.05,4.1s-.21,4.95.85,7.41,10.32,9.2,5.65,12.19c-5.28,3.39-20.67-3.27-25.1-7.2-1.6-1.42-2.4-3.52-4.15-4.81-3.86,1.15-.4,7.13,1.37,8.97,2.89,3,20.43,9.74,24.88,10.23,13.88,1.54,10.2-6.31,8.53-16.45,3.81.35,8.35-.49,12.05,0Z" style="fill:#fff;"/><path d="M142.53,266.75c.6-.98,1.37-.95,2.37-1.07,14.32-1.68,34.69.27,49.61.1,108.83-1.23,218.22-1.47,327.04-.04,16.79.22,39.86-1.91,55.77.69,3.97.65,6.54,3.7,4.13,7.51-2.89,4.55-10.06,6.51-15.12,6.91-26.22,2.05-53.62,0-79.84,2.1-82.76.26-165.64,2.94-248.34,2.33-.8-2.08-.25-5.99-3.02-6.49l-92.61-.69v-11.36Z" style="fill:#fff;"/><path d="M319.3,51.13c1.65,1.64,2.82,8.95,2.95,11.51,2.89.55,2.53-4.45,3.79-4.81,1.55-.5,3.35,2.1,3.64,3.28,1,4.08-4.44,7.5-2.98,9.79.55.86,7.19,5.09,8.44,5.35,3.17.67,5,.05,7.76-1.21-1.4,5.75-.27,10.15,4.81,13.42,0,1.28-15.76,5.33-17.93,8.22-.63.84-.8,1.39-.64,2.45,1.02.99,9.35-2.4,10.99-3.12,4.17-1.82,9.13-6.17,13.44-5.87,5.07.36,6.14,6.17,7.98,9.82,13.22,26.13,13.09,56.71,9.58,85.55l-5.12,43.07c-.74.94-1.64.65-2.62.52-5.04-.69-15.16-5.6-21.03-7.24-11.11-3.12-26.46-4.36-36.42-9.02-2.99-1.4-9.11-6.67-11.58-7.02-2.08-.3-.58,3.54-1.07,4.8-21.63,3.29-43.55,5.15-65.38,6.91.38-1.44,2.28-1.82,3.06-2.78,2.07-2.56,1.44-15.97,1.76-19.92,2.01.44,3.24,1.87,5.35,2.56,14.23,4.61,15.14-6.96,23.29-9.37,8.99-2.67,27.83-.09,37.77-.04,10.49.06,36.26.61,45.14-3.13,4.93-2.08,8.15-13.87,9.96-18.96,1.52-4.3,2.5-10.62,4.15-14.43.76-1.75,2.63-2.8,2.96-3.92.61-2.03-.3-4.69.15-6.62.13-.56,1.26-.19,1.42-1.46.82-6.67,1.02-16.08.67-22.8-.21-3.87-1.14-8.03-2.43-11.32-3.42-8.71-9.3-9.41-18.29-7.95-12.26,2-9.28,10.56-10.31,19.3-1.38,11.75-8.69,28.46-6.78,39.09.2,1.13,1.51,1.94,1.28,3.26l-23.16,4.8c-.99.16-1.9-.06-2.25-1.12-.19-.58.6-10.72.8-12.1.55-3.85,3.63-13.31,4.82-17.9,2.64-10.16,4.18-11.96,9.35-20.22,5.06-8.08,13.19-16.73,8.98-26.67-4.73-11.16-24.1-1.88-26.6-13.33-1.47-6.72-.91-16.27-.08-23.16.28-2.3,1.67-13.67,4.27-13.43,4.06,1.1,2.63,3.92,3.73,6.63,2.31,5.7,10.06,6.33,12.38,8.62Z" style="fill:#fff;"/><path d="M176.01,366.67c-.05.17-.91.29-1.04.79-7.34,26.93-14.13,54.04-21.46,80.98-2.28,3.23-12-1.34-15.99-.15-1.99.59-5.69,10.07-6.72,2.3-.59-4.46-.18-13.14.04-17.93,1.15-24.55,5.65-49.16,7.56-73.67l3.1-64.36c1.58-2.5,3.89-.7,6.17-.66,5,.09,37.21-.73,38.63,1.3-.05,4.64-.1,9.52-.39,14.15-1.31,20.71-4.49,37.38-9.9,57.24Z" style="fill:#fff;"/><path d="M237.49,295.39c1.13,7.22,2.47,14.46,3.41,21.71,3.27,25.24,3.19,50.86,4.26,76.28.24,5.8-.77,13.2-.08,18.66.17,1.32,1.32.66,1.49,1.97.38,3.04.4,12.9,0,15.93-.16,1.23-1.19.86-1.39,1.5-.26.85.04,2.03-.37,2.94-3.67,8.3-11.4,10.64-20,9.64-3.33-.39-3.46-1.12-4.15-4.11-9.27-40.05-10.45-81.81-20.91-121.57-.29-1.11-1.24-1.05-1.37-1.54-.72-2.68-5.69-21.36-4.89-22.18l44,.76Z" style="fill:#fff;"/><path d="M238.93,287.74c16.41-.16,32.85.22,49.26.03,81.13-.91,162.65-1.68,243.7-4.19,12.35-.38,40.83,2.21,49.6-6.17,3.43-3.27,3.18-5.98,2.77-10.33,5.5,2.93,8.8,15.22,1.71,18.25-2.93,1.25-11.37,2.19-14.81,2.4-7.9.5-16.07-.44-24,.1l-1.04,1.03-.39,4.43-2.08.68h-195.62c-33.73-3.38-70.47,2.03-103.97-.69-4.24-.35-5.78-.82-5.14-5.54Z" style="fill:#fff;"/><path d="M355.98,151.45c1.17,1.11-9.08,28.91-10.64,30.31-2,1.8-12.69,3.24-15.83,3.45-21.92,1.44-45.38-1.17-67.47,0-5.02,1.18-7.55,6.71-11.72,8.94-3.15,1.68-10.65,3.72-12.07-.71,2.57-.48,7.74-.99,9.85-2.2,1.07-.61,1.88-1.42.5-2.3-2.21-1.4-12.01,1.37-15.17,1.05.89-1.99,5.56-2.31,4.82-5.14-.69-2.66-6.25,2.42-6.22-1.39.01-1.97,6.76-6.65,8.79-7.07,5.13-1.06,10.44,1.21,15.59.44l28.32-6.81c2.31-.23-.03,2.9.35,4.14,1.74,1.61,24.79-8.33,28.77-9.44,3.24-.9,22.7-3.46,22.86-6.05.12-1.89-5.22.25-7.15-1.1-1.48-1.04-1.71-2.42.04-3.27l26.4-2.86Z" style="fill:#fff;"/><path d="M223.78,137.67c-1,13.01,1.73,26.73.72,39.61-.32,4.07-2.62,6.31-2.77,6.99-.28,1.3.13,2.97-.01,4.35,2.36-.02,5.56-.51,6.89,2.05l-81.25,13.78c-.35-.35.49-6.15.86-7.06,1.1-2.67,11.03-3.86,14.15-4.44,6.45-1.2,40.16-4.87,42.84-7.42s-2.25-3.46-3.88-3.72c-8.81-1.38-18.08-.54-26.8-.75-1.15-.03-1.66-.01-2.37-1.05,14.46-11.16,31.7-19.3,43.72-33.38,1.75-2.05,4.54-7.34,5.81-8.5.76-.69,1.16-.48,2.1-.46Z" style="fill:#fff;"/><path d="M129.19,177.35c-.1.19-.91.37-1.31,1.13-5.81,11.2-11.66,22.39-17.9,33.35l-14.96,2.95,25.77-79.22c1.36-1.41,2.45.56,3.84,1.09,2.7,1.03,13.76,4.1,14.36,6.35-1.49,12.14-4.16,23.49-9.81,34.36Z" style="fill:#fff;"/><path d="M129.44,419.91c-1.02,1-1.24-.07-1.36-1.02-.68-5.42-.34-10.55-.7-15.83-2.15-31.21-4.37-62.37-6.2-93.62-.17-2.88-1.89-13.76-1.03-15.49,1.23-2.48,4.18-.69,6.17-.66,4.03.07,8.17-.38,12.12.27l.65,1.42c-1.26,41.79-4.1,83.56-9.65,124.94Z" style="fill:#fff;"/><path d="M239.62,148.01c-.6,3.1,3.6,11.36,6.57,11.72,1.51.18,2.82-.94,4.46-.44,2.57.78,7.19,5.97,11,5.94.23,1.18-.28,1.41-1.18,1.91-1.59.89-9.93,3.84-11.72,4.11-3.15.48-4.81-.57-7.37-.54-1.6.01-8.69,2.03-9.33,1.4-.31-6.69-.23-13.63-.7-20.3-.89-12.72-4.67-25.83-.18-38.06,1.07-2.91,1.16-4.56,4.56-2.8,3.1,1.6,11.9,9.23,14.92,11.93,1.79,1.61,13.1,12.74,13.1,13.78-5.3,5.8-7.44,13.73-13.55,18.88-2.62,0-9.19-8.95-10.57-7.52Z" style="fill:#fff;"/><path d="M327.76,149.38c2.05-12.64,6.16-24.79,7.59-37.55.3-2.71-1.12-4.64.75-8.14,2.66-4.97,14.71-5.7,19.16-3.5,3.89,1.92,5.25,12.49,5.53,16.5.62,8.74-.52,18.53-1.7,27.21l-.75.59c-4.16-3.27-29.49,6-30.59,4.89Z" style="fill:#fff;"/><path d="M146.83,212.19c25.24-4.31,50.22-10.75,75.43-15.11,1.79-.31,7.74-1.91,8.35.23-2.65,7.2,3.64,15.94-5.98,17.97-20.89,4.42-41.9-5.3-62.57-.6-2.85.65-13.82,5.05-15.06,4.95-2.88-.24-.79-5.47-.18-7.45Z" style="fill:#fff;"/><path d="M322.94,55.76c.68-8.86-9.71-7.46-13.39-13.12-2.09-3.22.05-2.97.28-6.13l-5.46-2.13.66-2.37c3.48-2.42,18.61.49,23.02,1.76,7.93,2.28,18.17,5.63,19.48,14.94.69,4.89-3.02,22.25-7.11,24.88-3.52,2.26-9.5-1.01-11.19-4.28.65-1.88,2.34-3.7,2.62-5.69.7-4.92-3.83-10.07-8.92-7.86Z" style="fill:#fff;"/><path d="M139.78,278.11c-8.53,1.08-20.38-.56-28.42,1.54-4.88,1.27-1.16,6.6-3.22,9.86-1.26.88-14.13-.3-15.03-1.24-1.03-3.62-4.78-18.33-1.95-20.56.69-.54,1.29-.55,2.1-.65,5.75-.74,14.07-1.15,19.97-1.37,8.66-.33,17.43.22,26.1.12l.83.55-.39,11.75Z" style="fill:#fff;"/><path d="M281.63,464.66l-18.25,1.37c-9.81-1.72-23.09-.37-32.35-4.14-4.05-1.65-5.58-7.25-5.91-11.22.14-.62,10.23-4.67,11.6-5.09,2.26-.68,9.19-1.76,11.33-1.45,3.41.5,30.58,15.07,32.58,17.74.71.94,1.27,1.41,1,2.79Z" style="fill:#fff;"/><path d="M113.62,211.33c-.69-.68,2.49-6.44,3.08-7.58,7.39-14.27,17.1-27.06,21.24-42.79.58-2.2,3.08-17.73,4.25-17.76,2.41,2.35.42,6.05.35,8.6-.49,17.88-2.11,35.68-2.87,53.58-.51,1.49-3.26,1.85-4.68,2.2-6.95,1.71-14.36,2.28-21.37,3.76Z" style="fill:#fff;"/><path d="M72.98,242.32l-7.94,4.1c-.76.57-1.25,1.38-.97,2.35,1.03,3.5,20.35,3.71,24.06,4.56.19,1.81-.02,1.09-1.01,1.39-2.19.65-4.42,1.01-6.44,2.16-2.01,3.31,4.91,4.05,7.08,4.04,11.08-.05,25.87-4.76,37.3-6.13,2.41-.29,14.27-1.66,15.31.01v5.66s-1.04,1.03-1.04,1.03c-7.97.47-16.01,1.81-23.97,2.19-6.75.33-14.94-.82-21.39-.05-2.42.29-4.22,1.79-6.87,2.08-5.9.65-13.59.19-19.67.39-5.77-1.38-6.21-10.24-7.59-15-.15-.53-1.08-.49-1.26-1.07-.23-.73-.91-5.42-.72-5.64l15.12-2.08Z" style="fill:#fff;"/><path d="M134.36,457.18l19.87.94c3.26,4.41,10.09,17.89,6.94,22.76-2.19,3.38-10.42,2.26-14.16,2.37-4.55.13-8.73,1.4-13.45-1.03-2.06-7.91-2.39-17.4.79-25.04Z" style="fill:#fff;"/><path d="M344.04,26.4c1.78,1.93,3.48,7.06,4.39,9.73,2.94,8.69,5.62,18.1.33,26.51.46-7.79,3.23-15.52-2.51-22.26-6.68-7.84-32.15-13.31-41.91-10.44-1.59.47-3.02,3.17-4.86.76-2.86-3.75,2.18-5.85,5.03-6.79,8.56-2.82,27.89-3.61,36.14.04.59.26,2.96,1.97,3.4,2.45Z" style="fill:#fff;"/><path d="M86.44,223.84l.92,1.5c-2.07,4.17-5.99,6.89-8.87,10.42-.56.68-.6,1.83-1.07,2.38-1.19,1.41-16.01,3.53-18.9,3.8-3.05.29-12.02,1.19-13.8-.63-.88-.9-3.8-6.33-3.11-7.3,1.51-2.13,39.47-8.41,44.83-10.17Z" style="fill:#fff;"/><path d="M138.4,214.09c-.02,2.59.21,10.72-2.09,12.02l-37.84,8.63,6.22-10.49,3.89-4.52,29.82-5.64Z" style="fill:#fff;"/><path d="M46.83,266.41c-3.84.15-14.76-.06-17.24-3.08-3.26-3.97-5.54-19.7-6.17-25.15,6.21,6.71,14.54,9.02,22.38,13.07l1.03,15.15Z" style="fill:#fff;"/><path d="M272.91,145.01c1.72,1.61,6.92,4.95,6.68,7.43-.38,3.86-13.59,11.17-17.53,10.69-1.58-.19-9.73-4.56-10.02-5.91,2.16-2.9,4.46-5.54,6.47-8.57,1.74-2.62,3.14-7.68,6.6-9.28,2.72-1.25,6.2,4.14,7.8,5.63Z" style="fill:#fff;"/><path d="M277.49,262.28c.16,1.2-1.56.65-2.4.68-26.02,1.07-53.05-.29-79.22-.03-13.07.13-26.8,1.8-39.94.76-1.21-.1-2.65.13-3.06-1.41,11.39-.49,22.73-2.76,34.09-3.44,12.18-.73,23.13.18,35.12.67,18.5.76,36.98,1.33,55.42,2.77Z" style="fill:#fff;"/><path d="M212.07,30.29c-2.07-.42-2.79-2.58-4.59-4.01-12.34-9.82-35.54,3.98-41.84,15.76-1.5,2.81-1.29,5.01-2.28,7.36-.42.99-.15,1.04-1.55.86-1.48-9.67,1.53-25.86,11.89-29.76,9.5-3.57,35.21-2.69,38.36,9.79Z" style="fill:#fff;"/><path d="M208.43,34.9c-2.63,3.05-15.25,2.48-19.41,2.26-2.53-.13-9.04-1.92-10.93-1.29s-.65,3.34-1.47,4.74c-.37.64-1.97,1.05-2.74,2.08-1,1.35-1.28,3.18-2.39,4.48l-5.55-.04c3.2-11.61,26.24-27.04,37.67-21.12,2.5,1.3,7.21,6.12,4.82,8.88Z" style="fill:#fff;"/><path d="M206.57,218.23c-.72,1.57-4.33,1.82-5.94,1.97-5.35.49-10.96.24-16.35.86-13.67,1.58-27.33,4.46-40.92,6.66l-2.2-.9c2.67-.31,2.78-2.39,4.46-3.8,3.18-2.66,19.03-7.06,23.51-7.47,12.45-1.15,24.93,2.87,37.44,2.67Z" style="fill:#fff;"/><rect x="141.78" y="280.17" width="45.58" height="6.92" style="fill:#fff;"/><path d="M297.46,152.82c1.24,1.27-7.95,12.27-9.13,13.98l-35.29,8.1-3.07-1.08c10.06-5.1,21.29-7.79,31.45-12.61,1.89-.9,15.36-9.09,16.05-8.39Z" style="fill:#fff;"/><path d="M235.49,285.68l-43.02.67c-2.2-.13-4.28-4.64-2.46-5.87l43.76.38c2.45.27,1.66,2.97,1.72,4.82Z" style="fill:#fff;"/><path d="M139.78,280.86l-.1,5.07-1.04,1.03c-3.9,1.63-18.02-.26-20.21,1.13-1.28.82-.22,2.47-3.79,2.48-5.78.02-4.16-8.47-2.66-8.92.27-.08,4.48-.79,4.72-.79h23.07Z" style="fill:#fff;"/><path d="M236.87,292.56h-43.04c-1.17,0-3.67-2.6-1.74-3.8,13.18.66,28.74-2.54,41.71-1.06,2.88.33,3.09,2.32,3.06,4.86Z" style="fill:#fff;"/><path d="M335.33,262.96c-.16-1.06,1.28-.82,2.07-1.02,4.13-1.06,8.41-1.52,12.55-2.61,1.72-.45,3.13-1.96,5.02-1.93s2.72,1.63,4.25,1.98c12.13,2.8,29.17.43,41.86,2.21l7.93,1.37h-73.68Z" style="fill:#fff;"/><path d="M21.4,230.55c-.37-5.34-1.99-11.58-2.17-16.8-.05-1.41-.23-2.86,1.09-3.79,1.86-.37,12.76,15.75,12.77,16.87.02,2.33-9.6,3.8-11.69,3.72Z" style="fill:#fff;"/><path d="M103.97,220.98c-4.17,10.13-9.14,14.67-20.65,14.45l8.55-12.44,12.1-2.01Z" style="fill:#fff;"/><rect x="37.88" y="223.47" width="53.02" height="3.03" transform="translate(-45.81 18.54) rotate(-12.12)" style="fill:#fff;"/><path d="M186.6,288.43v3.45l-28.61.03c-4.35-.53-8.6-.34-13.09-.69-1.23-.1-2.23.2-3.05-1.06,0-1.73,12.27-.92,14.13-1,1.63-.07,3.14-.7,4.76-.75,8.6-.25,17.26.25,25.85.02Z" style="fill:#fff;"/><path d="M209.32,196.89l-62.65,12.38c-.25-1.88,1.92-2.28,3.27-2.58,13.75-3,28.13-5.27,42.03-7.55,5.72-.94,11.56-1.94,17.35-2.26Z" style="fill:#fff;"/><path d="M226.54,134.92c1.27.26,1.28,1.35,1.4,2.38,1.17,9.76,1.2,19.81,1.36,29.62.05,2.99,2.54,9.15-2.76,9.3v-41.3Z" style="fill:#fff;"/><path d="M139.09,209.27c.18.93-.29,1.59-.99,2.1-1.04.76-22.44,4.92-25.14,5.17-4.65.42-2.23-1.89.64-2.81,2.67-.86,24.53-5.31,25.5-4.45Z" style="fill:#fff;"/><path d="M332.58,151.44c.36-.92,3.03-1.59,3.98-1.86,3.61-1.02,14.57-3.88,17.71-3.7,3.47.2,2.93,2.55-.06,3.45-6.14,1.83-15.19,1.75-21.63,2.11Z" style="fill:#fff;"/><path d="M204.5,95.69c1.98,11.07-4.76,9.96-12.39,6.53,2.98-.68,6.52.09,9.21-1.8,2.54-1.78.59-4.71,3.18-4.73Z" style="fill:#fff;"/><path d="M368.38,238.87c-.02,5.52-3.58,9.81-8.25,12.39-.7-3.33,1.8-4.57,2.96-6.36.39-.6,3.96-7.52,5.29-6.02Z" style="fill:#fff;"/><path d="M107.41,215.47c2.81,2.36-13.25,4.83-14.45,4.81-.07-1.12-.24-1.6.71-2.38,1.07-.89,13.02-3.04,13.75-2.43Z" style="fill:#fff;"/><path d="M300.21,155.58l-.77,8.86-5.1,1.38-.95-1.56c1.87-2.33,3.28-4.99,5.05-7.38.57-.77-.01-1.71,1.77-1.3Z" style="fill:#fff;"/><path d="M142.2,212.71c3.14-.71,1.43,10.17-1.38,9.63-1.22-.24-.62-1.29-.6-1.91.05-1.3.71-7.44,1.97-7.73Z" style="fill:#fff;"/><path d="M41.31,240.93c-.71.72-7.18-3.22-6.88-4.46,3.71-4.16,6.43.63,6.88,4.46Z" style="fill:#fff;"/><path d="M239.62,173.48c.41,1.87-.56,1.17-1.37,1.7-1.15.75-5.59,4.45-6.2,2.07-.82-3.19,5.44-4.19,7.57-3.77Z" style="fill:#fff;"/><path d="M229.98,178.3c1.57,3.49-5.35,8.8-3.6,3.63.28-.83,2.63-4.75,3.6-3.63Z" style="fill:#fff;"/><path d="M297.46,167.97c-.68,1.19-3.66,1.93-4.96,2.26-1.1.28-2.12.67-3.3.48.55-3.77,5.59-2.61,8.26-2.74Z" style="fill:#fff;"/><polygon points="139.09 291.18 135.31 291.18 128.08 289.82 137.37 289.1 139.09 291.18" style="fill:#fff;"/></svg>