<?xml version="1.0" encoding="UTF-8"?><svg id="a" xmlns="http://www.w3.org/2000/svg" viewBox="0 0 469.2 455.51"><path d="M469.2,411.78v43.73H0V0h469.2v410.87l-273.32-.92c15.44-12.19-10.04-18.36-17.31-25.5-1.7-2.63-3.47-6.25-7.62-6.15-3.06.08-3.91,4.69-5.13,6.15-2.09,2.5-6.75,4.74-6.37,9.11l8.01-.3,26.6,13.05c-11.23,3.86-21.79,3.48-32.79-.91-.69-2.84,2.54-1.34,2.8-4.09.6-6.27-13.85-5.15-7.36,2.27-3.72-.02-10.96.56-12.35-3.58-1.26-3.78-1.79-24.6,5.33-22.73,2.55.67,3.3,5.46,9.29,5.45,6.95-.01,10.04-5.93,12.32-11.45,10.2-24.7,19.6-57.17,20.07-83.79l-.96-34.2c-2.75-.45-1.45.69-1.84,2.21-3.6,14.32-1.29,41.32-2.73,57.44-1.19,13.36-12.66,48.12-19.23,60.03-4.7,8.52-13.78,3.72-14.45-3.62-.51-5.6,3.55-16.77,3.68-23.57.1-5.27-1.56-10.47-1.86-15.52-.4-6.7-.15-30.22,6.32-33.69.74-.4,5.63,1.65,4.59-2.73-.46-1.93-3.48-.28-3.63-.45-.7-.81-3.07-17.5-4.1-20.97-1.61-5.42-11.54-22.41-1.87-23.72,9.43-1.28,20.83,3.8,30.13,3.52,5.04-.15,5.23-2.37,5.04-6.7-.46-10.45-.96-24.98-3.41-34.86-.39-1.55-1.25-2.91-1.97-4.3,14.18-9.58,28.18-20.81,39.95-33.23-9.17,7.27-18.1,15.98-27.41,23.15-10.09,7.78-21.95,13.13-32.27,20.57l-3.87-10.32,9.78-12.45c-3.68,3.11-8.05,6.81-10.39,11.05-.5.9-.45,2.52-.55,2.62-.33.31-2.25-.83-3.19-.76-4.07.27-8.06,4.42-10.93,7.13-2.12-16.15,11.17-28.2,6.06-44.89,4.79-5.05,9.11-9.48,13-15.32,3.56-5.34,6.88-9.86,10.54-14.97,11.04-15.46,24.01-41.78,2.47-54.36l-8.82-4.37c11.78-3.74,23.99-6.96,36.5-5.08,1.14,5.18,1.13,10.7,2.05,16.17,1.4,8.28,5.28,25.08,16.12,23.08-3.72,10.9-5.43,22.83-12.19,32.45-6.31,8.99-23.73,20.05-27.25,28.39-.8,1.88.11,3.36-.26,4.32-.64,1.62-8.9,8.53-10.87,10.89-.61.72-2.39,1.83-.91,2.74,4.26-3.9,8-8.45,12.29-12.31,1.61-1.45,8.83-7.79,10.05-8.21.89-.31,7.34,4.49,7.27-3.17-.52-.51-5.52,1.16-4.54-1.36l7.27-8.23-2.72-.89c5.15-5.2,10.85-10.13,14.15-16.82,2.75-5.58,8.73-23.71,9.53-29.66.43-3.19-3.41,1.27-6.64.31-7.06-2.1-10.98-24.86-11.41-31.27-.09-1.33.95-2.88.77-4.51-1-8.58-24.69-1.89-30.05-.9-.94.17-2.99,1.2-2.77-.5,4.61-1.9,31.56-5.93,33.61-3.55.83.96-1.35,4.28,1.91,3.54-.11-4.73,2.71-7.9,3.79-12.16,3.03-11.91.53-23.82,14.45-29.28,16.89-6.61,34.95,3.07,42.06,18.96,1.52,3.39,3,6.28-1.3,8.12-8.79,3.75-22.97-9.6-29.3-5.57-1.38.88-2.11,4-5.44,3.34-.99-.2-5.86-7.38-9.22-7.07-5.46,4.48,6.84,7.67,6.83,8.63l-10.91,5.92c.34-2.57,2.25-5.26-.45-7.26-6.15,2.75-8.29,10.27-3.64,15.46l3.63-3.58,2.28,1.38c3.01-5.88,7.02-5.21,11.55-7.65,2.48-1.34,6.71-5.14,9.15-5.46,3.65-.48,11.15,4.28,14.99,5.59,4.93,1.68,8.1-1.42,6.72,6.13-2.11,11.56-10.34,26.8-20.09,33.67-4.37,3.09-10.05,3.28-14.15-.5-.92-.84-.21-2.41-.96-3.45-3.48-4.82-6.96-8.14-10.49-13.28-1.15-1.67-5.35-10.04-7.66-8.28,2.31,4.5,4.33,9.13,7.08,13.41,2.15,3.34,5.82,8.88,9.32,10.29-2.19,3.75-8.19,3.82-8.19,9.09l8.8-5.26c3.13.72,5.87,3.02,9.19,3.22,3.96.24,7.71-3.51,11.21-.28,9.67,8.95-7.09,37.27-11.86,46.59-8.72.16-16.29-2.31-24.62-4.18-.03,2.98,3.86,4.41,6.17,5.21,4.71,1.63,10.91,2.77,15.69,1.17,1.79,1.94-9.24,12.79-10.93,14.57,13.71-10.87,31.7-40.37,29.08-58.68-.72-5.04-2.89-8.01-8.12-7.36,11.42-9.02,17.36-19.46,21.22-33.43.77-2.8,1.85-6.16.51-8.81-8.13,1.32-15.76-7.21-23.11-6.57-3.7.32-12.32,7.79-17.18,8.4l-3.77,4.41-1.37-2.25c.18-.74,11.2-7.24,12.84-8.13,1.5-.81,3.4-.62,4.87-1.54,1.02-.64,1.18-2.42,2.07-2.65,5.68-1.49,15.28,5.75,21.67,6.39,16.97,1.68,9.57-11.75,3.17-19.57-9.24-11.29-25.31-15.87-38.88-9.76-15.96,7.18-10.05,23.44-16.83,36.46-11.89.56-32.05.5-42.09,7.57-1.73,1.22-2.35,3.29-2.56,3.42-.32.2-5.26-.34-7.48.21-9.69,2.39-10.19,8.85-15.14,14.92-16.04,19.64-34.09,35.42-46.62,58.15-2.58,4.68-10.93,22.02-9.86,26.54.07.31,1.3,1.81,1.82.96,5.94-12.85,10.69-26.35,20.03-37.38.24-2.61-1.09-.75-1.79.04-3.77,4.29-6.08,9.72-9.29,14.39l-8.95,19.74c.75-7.56,4.48-14.92,8.03-21.56,9.83-18.34,26.38-37.99,40.97-52.87.89-.91.89-2.58,2.91-2.09l-5.47,21.86c-3.38-3.13-6.34-1.78-9.1,1.37l6.37-2.28c-1.71,13.06-2.56,26.63-8.12,38.79l-1.91,42.29c-6.84-3.16-26.5-19.32-33.22-18.26-1.69.27-1.98.68-2.3,2.32-.61,3.17.36,14.57.92,18.22.71,4.67,2.47,9.68,4.11,14.11,2.5,6.74,12.02,31.07,15.53,35.49.86,1.08,1.5,2.19,3.13,1.87l-2.35-10.05,8.73-3.6-6.36,17.9c-1,2.19,1.77,2.11,1.85,2.7.2,1.52-1.5,3.91-.96,5.81,1.2,1.18,5.1-2.41,4.5.39-5.15,23.86-13.62,33.63-8.77,61.73,2.56,14.86,7.51,29.41,9.26,44.49,3.15,2.15,2.37-5.14,2.28-6.84-1.22-22.11-12.06-41.01-8.69-65.19.62-4.41,5.41-20.83,8.23-23.66,1.63-1.63,4.25-.53,6.21-1.08,4.81-1.36,14.23-19.87,17.49-24.4,7.21,11.17.47,22.87-1.12,34.39-2.21,16.02,2.03,26.74-2.13,44.33-1.82,7.66-7.88,20.65-8.04,27.49-.11,4.61,4.35,14.37,3.45,17.08-.98,2.96-10.67.77-13.84,1.69-4.84,1.41-9.89,21.94-9.79,26.72.03,1.13,2.17,8.58,2.71,10.04,2.31,6.29,6.48,7.17,12.81,6.77l-6.24-6.96c-2.41-4.95-3.03-9.94-2.9-15.39.06-2.62.94-12.1,2.38-13.1.55-.38,11.39-4.68,12.41-4.92,10.41-2.51,7.22,7.32,8.13,13.4,1.29,8.56,4.72,16.77,5.29,25.5l-8.56,2.43-121.66.89,3.17.9c33.98-.84,68.13,1.11,102.09.04,2.15-.07,4.15-.89,6.3-.99,3.87-.18,16.95,1.12,18.8-1.24,2.99-3.81-2.85-19.53-3.63-24.78-.73-4.89,1.56-16-5.32-17.49-5.94-1.28-13.37,4.94-19.39,5.74-.13-11.24,17.66-3.66,19.01-9.28-.37-4.1-2.72-7.83-3.27-11.9-1.8-13.24,8.6-29.96,9.77-44.42.72-8.91-1.45-17.58-.93-26.44.77-13.15,7.45-25.11,3.69-38.68,1.56.74,3.27,5.6,3.64.91,1.21-.91,6.39,13.89,6.83,15.48.85,3.06,4.16,17.48,4.02,19.66-.06,1.02-4.72,7.23-5.59,9.76-4.61,13.41.29,32.51-.68,46.69-.46,6.62-4.02,15.36-2.57,21.64,1.21,5.28,9.55,9.51,13.95,5.22l4.09-5.93c-.29,6-7.67,12.27-13.44,9.79-3.58-1.55-6.04-8.87-11.2-2.53-2.79,3.43-2.72,19.45-1.2,23.04,1.11,2.61,8.25,3.26,10.9,3.73,5.16.92,5.06,1.04,10.11,2.65,9.5,3.01,21.89,3.05,31.23-.71-1.26,2.49-3.83,3.83,1.32,4.6l272-.04Z" style="fill:#fff;"/><path d="M178.57,384.45c4.45,6.87,8.33,6.49,14.5,10.55,4.79,3.15,10.83,9,2.81,12.22,1.9-3.75-5.26-3.29-7.94-4.36-8.56-3.42-17.18-13.53-26.68-10.21l4.55-8.2c6.44-7.46,6.21-4.55,12.75,0Z" style="fill:#fff;"/><path d="M195.88,407.22c-9.34,3.75-21.73,3.72-31.23.71-5.05-1.6-4.95-1.72-10.11-2.65-2.65-.47-9.8-1.12-10.9-3.73-1.52-3.59-1.59-19.61,1.2-23.04,5.15-6.34,7.61.98,11.2,2.53,5.77,2.49,13.15-3.78,13.44-9.79l-4.09,5.93c-4.4,4.29-12.74.06-13.95-5.22-1.44-6.28,2.12-15.02,2.57-21.64.98-14.18-3.92-33.28.68-46.69.87-2.53,5.52-8.74,5.59-9.76.14-2.19-3.17-16.6-4.02-19.66-.44-1.58-5.62-16.39-6.83-15.48-.38,4.69-2.09-.17-3.64-.91,3.76,13.57-2.92,25.53-3.69,38.68-.52,8.86,1.65,17.54.93,26.44-1.17,14.46-11.57,31.18-9.77,44.42.55,4.07,2.91,7.79,3.27,11.9-1.35,5.62-19.13-1.95-19.01,9.28,6.01-.79,13.45-7.02,19.39-5.74,6.88,1.49,4.59,12.6,5.32,17.49.78,5.26,6.63,20.97,3.63,24.78-1.85,2.36-14.93,1.06-18.8,1.24-2.16.1-4.15.92-6.3.99-33.96,1.08-68.11-.88-102.09-.04l-3.17-.9,121.66-.89,8.56-2.43c-.57-8.73-4.01-16.94-5.29-25.5-.91-6.08,2.28-15.91-8.13-13.4-1.02.25-11.86,4.54-12.41,4.92-1.44,1-2.32,10.48-2.38,13.1-.13,5.46.49,10.45,2.9,15.39l6.24,6.96c-6.33.4-10.5-.48-12.81-6.77-.54-1.46-2.68-8.91-2.71-10.04-.11-4.78,4.95-25.31,9.79-26.72,3.17-.92,12.86,1.27,13.84-1.69.9-2.72-3.56-12.47-3.45-17.08.16-6.84,6.22-19.83,8.04-27.49,4.17-17.59-.08-28.31,2.13-44.33,1.59-11.52,8.33-23.23,1.12-34.39-3.26,4.53-12.69,23.03-17.49,24.4-1.95.55-4.58-.55-6.21,1.08-2.82,2.82-7.61,19.25-8.23,23.66-3.38,24.18,7.46,43.08,8.69,65.19.09,1.7.88,8.99-2.28,6.84-1.75-15.08-6.7-29.63-9.26-44.49-4.85-28.1,3.62-37.87,8.77-61.73.61-2.81-3.3.79-4.5-.39-.55-1.89,1.16-4.29.96-5.81-.08-.59-2.85-.52-1.85-2.7l6.36-17.9-8.73,3.6,2.35,10.05c-1.63.32-2.27-.79-3.13-1.87-3.51-4.42-13.03-28.75-15.53-35.49-1.64-4.43-3.4-9.44-4.11-14.11-.55-3.64-1.52-15.05-.92-18.22.32-1.64.61-2.06,2.3-2.32,6.72-1.06,26.38,15.1,33.22,18.26l1.91-42.29c5.56-12.16,6.41-25.73,8.12-38.79l-6.37,2.28c2.76-3.15,5.72-4.51,9.1-1.37l5.47-21.86c-2.02-.49-2.02,1.18-2.91,2.09-14.59,14.88-31.14,34.52-40.97,52.87-3.56,6.64-7.29,14-8.03,21.56l8.95-19.74c3.21-4.68,5.52-10.1,9.29-14.39.69-.79,2.02-2.65,1.79-.04-9.34,11.04-14.09,24.53-20.03,37.38-.51.85-1.75-.66-1.82-.96-1.07-4.52,7.28-21.86,9.86-26.54,12.53-22.73,30.58-38.51,46.62-58.15,4.95-6.07,5.45-12.53,15.14-14.92,2.23-.55,7.17-.01,7.48-.21.21-.13.83-2.2,2.56-3.42,10.04-7.07,30.2-7.01,42.09-7.57,6.78-13.03.87-29.29,16.83-36.46,13.57-6.1,29.64-1.53,38.88,9.76,6.4,7.82,13.8,21.25-3.17,19.57-6.39-.63-15.99-7.88-21.67-6.39-.89.23-1.05,2.01-2.07,2.65-1.47.92-3.37.73-4.87,1.54-1.63.88-12.66,7.39-12.84,8.13l1.37,2.25,3.77-4.41c4.86-.6,13.48-8.08,17.18-8.4,7.35-.64,14.98,7.89,23.11,6.57,1.34,2.65.26,6.01-.51,8.81-3.86,13.97-9.8,24.42-21.22,33.43,5.23-.65,7.4,2.32,8.12,7.36,2.63,18.31-15.36,47.81-29.08,58.68,1.69-1.78,12.72-12.64,10.93-14.57-4.77,1.6-10.97.46-15.69-1.17-2.31-.8-6.2-2.23-6.17-5.21,8.34,1.87,15.9,4.34,24.62,4.18,4.77-9.32,21.53-37.64,11.86-46.59-3.5-3.24-7.25.52-11.21.28-3.31-.2-6.06-2.49-9.19-3.22l-8.8,5.26c0-5.28,6.01-5.34,8.19-9.09-3.5-1.4-7.17-6.95-9.32-10.29-2.75-4.27-4.77-8.91-7.08-13.41,2.31-1.76,6.51,6.61,7.66,8.28,3.53,5.14,7.01,8.46,10.49,13.28.75,1.04.05,2.6.96,3.45,4.1,3.77,9.78,3.58,14.15.5,9.74-6.87,17.97-22.11,20.09-33.67,1.38-7.55-1.79-4.45-6.72-6.13-3.84-1.31-11.33-6.07-14.99-5.59-2.45.32-6.68,4.13-9.15,5.46-4.53,2.44-8.54,1.77-11.55,7.65l-2.28-1.38-3.63,3.58c-4.65-5.2-2.51-12.72,3.64-15.46,2.7,2,.79,4.69.45,7.26l10.91-5.92c.01-.96-12.28-4.15-6.83-8.63,3.37-.31,8.23,6.87,9.22,7.07,3.33.66,4.06-2.46,5.44-3.34,6.33-4.03,20.51,9.32,29.3,5.57,4.3-1.84,2.82-4.73,1.3-8.12-7.11-15.89-25.17-25.58-42.06-18.96-13.92,5.45-11.42,17.36-14.45,29.28-1.08,4.26-3.9,7.43-3.79,12.16-3.26.74-1.08-2.57-1.91-3.54-2.05-2.38-28.99,1.65-33.61,3.55-.21,1.7,1.83.67,2.77.5,5.36-.99,29.06-7.68,30.05.9.19,1.63-.85,3.18-.77,4.51.43,6.42,4.35,29.17,11.41,31.27,3.23.96,7.07-3.5,6.64-.31-.8,5.94-6.78,24.08-9.53,29.66-3.3,6.69-9,11.62-14.15,16.82l2.72.89-7.27,8.23c-.98,2.51,4.02.84,4.54,1.36.07,7.66-6.38,2.86-7.27,3.17-1.22.42-8.44,6.76-10.05,8.21-4.29,3.86-8.03,8.41-12.29,12.31-1.48-.91.3-2.01.91-2.74,1.97-2.35,10.23-9.26,10.87-10.89.38-.96-.53-2.44.26-4.32,3.52-8.34,20.94-19.41,27.25-28.39,6.76-9.62,8.48-21.55,12.19-32.45-10.84,2.01-14.72-14.8-16.12-23.08-.93-5.46-.92-10.99-2.05-16.17-12.51-1.88-24.72,1.34-36.5,5.08l8.82,4.37c21.54,12.58,8.57,38.9-2.47,54.36-3.65,5.11-6.97,9.63-10.54,14.97-3.89,5.83-8.22,10.27-13,15.32,5.11,16.69-8.18,28.74-6.06,44.89,2.87-2.71,6.85-6.86,10.93-7.13.93-.06,2.85,1.08,3.19.76.1-.09.05-1.71.55-2.62,2.34-4.24,6.71-7.94,10.39-11.05l-9.78,12.45,3.87,10.32c10.32-7.44,22.18-12.79,32.27-20.57,9.31-7.18,18.24-15.89,27.41-23.15-11.77,12.42-25.77,23.65-39.95,33.23.72,1.4,1.58,2.75,1.97,4.3,2.45,9.89,2.95,24.42,3.41,34.86.19,4.33,0,6.55-5.04,6.7-9.3.28-20.7-4.8-30.13-3.52-9.67,1.31.26,18.3,1.87,23.72,1.03,3.47,3.4,20.16,4.1,20.97.15.17,3.18-1.47,3.63.45,1.04,4.38-3.86,2.34-4.59,2.73-6.47,3.47-6.72,26.99-6.32,33.69.3,5.05,1.96,10.25,1.86,15.52-.13,6.81-4.19,17.97-3.68,23.57.67,7.34,9.75,12.14,14.45,3.62,6.57-11.91,18.04-46.67,19.23-60.03,1.44-16.12-.88-43.12,2.73-57.44.38-1.53-.91-2.66,1.84-2.21l.96,34.2c-.46,26.62-9.87,59.09-20.07,83.79-2.28,5.53-5.37,11.44-12.32,11.45-6,.01-6.75-4.79-9.29-5.45-7.12-1.87-6.6,18.95-5.33,22.73,1.39,4.15,8.63,3.56,12.35,3.58-6.49-7.42,7.97-8.54,7.36-2.27-.26,2.75-3.49,1.25-2.8,4.09,11,4.39,21.56,4.77,32.79.91l-26.6-13.05-8.01.3c-.38-4.36,4.28-6.6,6.37-9.11l-4.55,8.2c9.5-3.32,18.12,6.8,26.68,10.21,2.68,1.07,9.84.61,7.94,4.36ZM222.3,61.04c-5.73,1.27-5.62,7.16-4.55,11.84,2.11.43,1.46-.26,2.05-1.17,1.88-2.93,1.78-7.27,2.5-10.67ZM141.67,233.22h-14.12c-.23-1.83-.18-1.5,1.13-2.06,4.78-2.05,9.37.98,14.26.13,2.06-10.54.64-22.04,3.49-32.49,1.07-3.94,3.46-7.43,4.41-11.08,1.52-5.81,1.01-11.5.39-17.36-5.09,5.18-7.05.36-3.25-2.85,1.57-1.33,3.1.02,4.21-.4,3.05-1.16,14.26-16.42,15.44-19.99-9.66-3.27-19.42-7.92-26.39-15.48.91-1.3,1.63-1.41,3.14-1.41,4.98-.01,13.1,6.26,18.08,8.41,2.87,1.24,5.99,1.74,8.82,3.08,13.25-14.3,28.85-45.74,4.27-57.17-12.07-5.61-22.86-2.52-28.87,9.25,5.46.66,1.05,9.39-.24,13.01-1.99,5.58-6.08,17.05-11.63,18.52-2.65,7.73-2.4,16.4-4.03,24.13-1.06,5.01-4.59,9.99-5.08,14.05-1.14,9.32-1.79,31.8-.93,41.06.73,7.8,5.85,16.7,2.76,25.01-2.86-3.14-3-9.8-3.63-14.13-.53-3.68,1.1-6.62-1.81-10.03-1.72-2.01-11.74-8.17-14.67-9.93-2.71-1.63-15.52-9.19-17.62-8.68-.86.21-1.4,1.36-1.45,2.24,1.09,5.02.3,10.47.94,15.45,2.08,16.03,13.33,31.17,17.31,46.93,2.08-.11-.42-2.49.8-4.13,1.54-2.07,5.78-2.15,7.88-4.03.79-.7,9.04-15.08,11.35-12.78-2.53,4-5.58,7.71-7.45,12.13-1.64,3.86-4.97,12.87-6.01,16.77-.2.76-.7,2.71.24,2.97,2.29-2.09,3.59-4.93,5.4-7.38.33-.45,1.02-3.37,2.35-1.72s-5.45,8.82-6.56,11.2c-.22.47-2.64,5.98-.29,5.18,4.44-1.52,5.71-6.69,8.14-10.12.34-.48,1.05-3.34,2.35-1.71,1.79,2.25-9.87,13.82-8.19,18.21,7.96-3,9.37-11.77,13.22-18.21,2.14-.46,1.5,1.84,1.17,2.99-.64,2.2-10.72,15.44-1.35,12.31,2.87-.96,10.13-16.57,14.63-20.5.55-.48,2.01-.11,2.25-.37,1.64-1.71-.8-17.91-4.87-19.04ZM148.5,95.67c-3.46-2.73-7.98,12.32-8.65,14.57-1.04,3.48-2.07,7.29-2.27,10.93,5.89-7.08,8.56-16.77,10.92-25.5ZM168.48,144.79c.12-.1,1.29-2.75.09-3.15-8.9-1.44-16.09-7.7-24.62-10.45-.31,1.76,1.17,2.62,2.29,3.62,2.77,2.47,19.41,12.18,22.23,9.99ZM188.6,250.53c.17-5.73-.48-39.04-3.61-41.5-3.76.05-7.5,3.76-10.95,5.53-10.17,5.22-11.33,6.59-15.47-5.55l-5.5.53c.7,1.69,2.98,1.48,4.57,3.16,9.85,10.35-14.26,26.61-8.21,38.73,1.74-.49,1.64-3.17,3.65-4.08,5.75-2.6,33.01,5.69,35.52,3.18ZM148.49,241.42c1.56-7.86,12.89-17.83,9.34-26.18-2.55-6.01-8.75-1.77-12.07,1.33-.61,5.33-.13,11.41-2.48,16.21l5.21,8.64ZM187.67,316.12c2.02-15.38,2.29-30.96,1.82-46.45l-1.85,18.63c.56,8.3-.23,16.48-.86,24.65-.08,1.01-.67,3.4.89,3.17ZM119.35,278.78c-5.73-.85-3.93,2.63-5.18,6.2s-3.1,6.86-4.07,10.51c-4.71,17.76-2.14,34.12,1.97,51.6,1.58.24.95-2.13.81-3.08-.84-5.66-2.77-11.69-3.44-17.52-1.9-16.67.54-33.56,9.91-47.71ZM116.62,412.24c-.99-5.96.73-14.25,0-20.5-1.33-.21-1.24,1.57-1.55,2.54-1.71,5.26-2.61,10.35-1.88,15.92s2.92,14.09,9.81,12.5c-2.21-2.72-5.79-6.95-6.38-10.47ZM156.71,399.03c-.12,4.84,3.51,5.61,6.37,2.26.59-2.47-4.93-3.24-6.37-2.26Z"/><path d="M178.57,384.45c7.27,7.14,32.75,13.3,17.31,25.5l273.32.92v.91l-272,.04c-5.16-.77-2.58-2.11-1.32-4.6,8.02-3.22,1.99-9.07-2.81-12.22-6.18-4.06-10.05-3.68-14.5-10.55Z"/><path d="M178.57,384.45c-6.55-4.55-6.32-7.46-12.75,0,1.22-1.46,2.07-6.08,5.13-6.15,4.15-.1,5.92,3.52,7.62,6.15Z"/><path d="M141.67,233.22c4.07,1.13,6.51,17.33,4.87,19.04-.25.26-1.71-.11-2.25.37-4.5,3.93-11.76,19.54-14.63,20.5-9.36,3.12.71-10.11,1.35-12.31.34-1.15.98-3.45-1.17-2.99-3.85,6.43-5.26,15.21-13.22,18.21-1.68-4.39,9.98-15.96,8.19-18.21-1.3-1.63-2.02,1.23-2.35,1.71-2.42,3.43-3.7,8.6-8.14,10.12-2.35.8.07-4.71.29-5.18,1.11-2.38,7.87-9.56,6.56-11.2s-2.02,1.27-2.35,1.72c-1.81,2.45-3.1,5.29-5.4,7.38-.94-.26-.44-2.22-.24-2.97,1.04-3.9,4.37-12.91,6.01-16.77,1.87-4.42,4.92-8.13,7.45-12.13-2.32-2.3-10.57,12.08-11.35,12.78-2.1,1.87-6.34,1.96-7.88,4.03-1.22,1.64,1.28,4.02-.8,4.13-3.98-15.75-15.23-30.9-17.31-46.93-.65-4.98.15-10.43-.94-15.45.06-.89.59-2.03,1.45-2.24,2.1-.51,14.91,7.05,17.62,8.68,2.93,1.76,12.95,7.92,14.67,9.93,2.91,3.4,1.29,6.35,1.81,10.03.62,4.33.77,10.99,3.63,14.13,3.08-8.31-2.04-17.21-2.76-25.01-.86-9.26-.21-31.74.93-41.06.5-4.06,4.02-9.03,5.08-14.05,1.63-7.72,1.38-16.39,4.03-24.13,5.55-1.47,9.65-12.94,11.63-18.52,1.29-3.62,5.7-12.35.24-13.01,6.01-11.77,16.8-14.87,28.87-9.25,24.58,11.43,8.98,42.87-4.27,57.17-2.83-1.34-5.96-1.84-8.82-3.08-4.98-2.15-13.11-8.42-18.08-8.41-1.51,0-2.23.11-3.14,1.41,6.98,7.56,16.73,12.2,26.39,15.48-1.18,3.57-12.39,18.83-15.44,19.99-1.11.42-2.64-.92-4.21.4-3.81,3.21-1.85,8.03,3.25,2.85.61,5.86,1.12,11.55-.39,17.36-.95,3.65-3.34,7.14-4.41,11.08-2.84,10.45-1.43,21.95-3.49,32.49-4.89.85-9.48-2.18-14.26-.13-1.31.56-1.36.23-1.13,2.06h14.12Z" style="fill:#fff;"/><path d="M188.6,250.53c-2.51,2.51-29.78-5.77-35.52-3.18-2,.9-1.91,3.59-3.65,4.08-6.05-12.12,18.07-28.38,8.21-38.73-1.59-1.68-3.87-1.47-4.57-3.16l5.5-.53c4.13,12.13,5.3,10.76,15.47,5.55,3.45-1.77,7.19-5.48,10.95-5.53,3.13,2.47,3.78,35.77,3.61,41.5Z" style="fill:#fff;"/><path d="M148.49,241.42l-5.21-8.64c2.35-4.8,1.87-10.88,2.48-16.21,3.32-3.1,9.51-7.34,12.07-1.33,3.55,8.36-7.77,18.32-9.34,26.18Z" style="fill:#fff;"/><path d="M119.35,278.78c-9.37,14.14-11.81,31.03-9.91,47.71.67,5.83,2.6,11.86,3.44,17.52.14.95.77,3.32-.81,3.08-4.11-17.49-6.68-33.84-1.97-51.6.97-3.65,2.83-6.97,4.07-10.51s-.55-7.05,5.18-6.2Z" style="fill:#fff;"/><path d="M116.62,412.24c.58,3.52,4.16,7.75,6.38,10.47-6.89,1.58-9.11-7.21-9.81-12.5-.74-5.57.16-10.66,1.88-15.92.31-.97.23-2.75,1.55-2.54.73,6.25-.99,14.54,0,20.5Z" style="fill:#fff;"/><path d="M168.48,144.79c-2.82,2.19-19.46-7.52-22.23-9.99-1.12-1-2.6-1.86-2.29-3.62,8.53,2.76,15.72,9.02,24.62,10.45,1.2.41.03,3.06-.09,3.15Z" style="fill:#fff;"/><path d="M148.5,95.67c-2.36,8.73-5.03,18.41-10.92,25.5.2-3.64,1.24-7.45,2.27-10.93.67-2.25,5.19-17.31,8.65-14.57Z" style="fill:#fff;"/><path d="M187.67,316.12c-1.56.23-.97-2.16-.89-3.17.63-8.17,1.42-16.35.86-24.65l1.85-18.63c.47,15.49.19,31.08-1.82,46.45Z" style="fill:#fff;"/><path d="M222.3,61.04c-.71,3.41-.62,7.74-2.5,10.67-.59.91.07,1.6-2.05,1.17-1.08-4.69-1.19-10.57,4.55-11.84Z" style="fill:#fff;"/><path d="M156.71,399.03c1.44-.98,6.96-.21,6.37,2.26-2.87,3.35-6.5,2.58-6.37-2.26Z" style="fill:#fff;"/><path d="M353.49,317.94v86.84h-84.64v-86.84h84.64ZM321.65,332.48c-17.93-8.01-42.38,7.68-41.06,27.7.42,6.33,9.12,24.56,13.85,28.4.92.75,1.74.41,2.34.72s.51,1.16.77,1.14c6.57-.45,12,1.91,19.44.56,31.32-5.71,29.9-47.23,4.65-58.51Z" style="fill:#fff;"/><path d="M321.65,332.48c25.25,11.28,26.67,52.8-4.65,58.51-7.44,1.36-12.87-1-19.44-.56-.27.02-.17-.84-.77-1.14s-1.41.03-2.34-.72c-4.73-3.84-13.44-22.06-13.85-28.4-1.32-20.02,23.13-35.71,41.06-27.7ZM325.94,338.43c-12.35-10.26-29.83-5.55-38.74,7.22-1.66,2.38-6.92,13.9-2.74,15l27.69-16.16c5.22.07,13.22,13.03,13.94,17.93,1.1,7.45-.45,11.06-6.75,14.76-7,4.1-16.72,4.28-24.58,4.92-2.21,2.2,5.98,5.93,7.42,6.32,7.69,2.13,15.75.51,22.81-2.86,19.49-9.3,15.54-35.02.96-47.13ZM291.73,379.37c14.58.5,41.29-1.68,29.06-23.65-1.74-3.12-6.5-10.13-10.39-7.81-8.58,5.71-17.87,10.38-25.82,17l-.36.67c1.43,5.08,4.9,9.27,7.51,13.79Z"/><path d="M325.94,338.43c14.58,12.11,18.53,37.83-.96,47.13-7.06,3.37-15.12,4.99-22.81,2.86-1.44-.4-9.62-4.13-7.42-6.32,7.86-.65,17.59-.82,24.58-4.92,6.3-3.7,7.85-7.3,6.75-14.76-.72-4.9-8.72-17.86-13.94-17.93l-27.69,16.16c-4.17-1.1,1.08-12.62,2.74-15,8.91-12.77,26.39-17.48,38.74-7.22Z" style="fill:#fff;"/><path d="M291.73,379.37c-2.61-4.52-6.08-8.7-7.51-13.79l.36-.67c7.95-6.62,17.24-11.29,25.82-17,3.88-2.33,8.65,4.69,10.39,7.81,12.23,21.97-14.48,24.15-29.06,23.65Z" style="fill:#fff;"/></svg>