<?xml version="1.0" encoding="UTF-8"?><svg id="a" xmlns="http://www.w3.org/2000/svg" viewBox="0 0 509.14 412.26"><path d="M342.78,321.78v86.84h-84.64v-86.84h84.64ZM310.94,336.32c-17.93-8.01-42.38,7.68-41.06,27.7.42,6.33,9.12,24.56,13.85,28.4.92.75,1.74.41,2.34.72s.51,1.16.77,1.14c6.57-.45,12,1.91,19.44.56,31.32-5.71,29.9-47.23,4.65-58.51Z" style="fill:#fff;"/><path d="M310.94,336.32c25.25,11.28,26.67,52.8-4.65,58.51-7.44,1.36-12.87-1-19.44-.56-.27.02-.17-.84-.77-1.14s-1.41.03-2.34-.72c-4.73-3.84-13.44-22.06-13.85-28.4M315.22,342.27c-12.35-10.26-29.83-5.55-38.74,7.22-1.66,2.38-6.92,13.9-2.74,15l27.69-16.16c5.22.07,13.22,13.03,13.94,17.93,1.1,7.45-.45,11.06-6.75,14.76-7,4.1-16.72,4.28-24.58,4.92-2.21,2.2,5.98,5.93,7.42,6.32,7.69,2.13,15.75.51,22.81-2.86,19.49-9.3,15.54-35.02.96-47.13ZM281.01,383.2c14.58.5,41.29-1.68,29.06-23.65-1.74-3.12-6.5-10.13-10.39-7.81-8.58,5.71-17.87,10.38-25.82,17l-.36.67c1.43,5.08,4.9,9.27,7.51,13.79Z"/><path d="M315.22,342.27c14.58,12.11,18.53,37.83-.96,47.13-7.06,3.37-15.12,4.99-22.81,2.86-1.44-.4-9.62-4.13-7.42-6.32,7.86-.65,17.59-.82,24.58-4.92,6.3-3.7,7.85-7.3,6.75-14.76-.72-4.9-8.72-17.86-13.94-17.93l-27.69,16.16c-4.17-1.1,1.08-12.62,2.74-15,8.91-12.77,26.39-17.48,38.74-7.22Z" style="fill:#fff;"/><path d="M281.01,383.2c-2.61-4.52-6.08-8.7-7.51-13.79l.36-.67c7.95-6.62,17.24-11.29,25.82-17,3.88-2.33,8.65,4.69,10.39,7.81,12.23,21.97-14.48,24.15-29.06,23.65Z" style="fill:#fff;"/><g id="b"><path d="M112.28,412.26H0V0h509.14v398.85h-52.96c13.16-9.04,24.4-14.14,21.72-32.66-1.16-8.05-7.88-20.01-8.33-27.72-.3-5.07,3.88-4.1,4.81-8.61,1.3-6.33-4.36-26.52-11.53-27.68-16.42-2.65-29.39,14.51-43.21,19.56-2.89,1.06-5.27,1.18-7.96,1.93-1.85.52-4.19,1.99-6.05,2.43-.98.23-1.29-.01-1-1,.93-3.13,5.2-6.06,6.23-8.6.34-.85.35-2.16-.93-1.64-3.27,3.21-5.88,6.89-8.25,10.81-1.17,1.93-3.98,9.68-5.88,9.69-2.77-.33-3.7-10.93-2.87-12.08,4.6-1.28,13.32-2.18,13.11-8.42-2.05.64-2.98,2.59-5.04,3.77s-5.56,3.02-7.7,1.56c-1.61-1.1-.33-4.54.75-3.57l1.1,1.83c.88.11,1.44-.19,2.11-.71,1.42-1.11,8.35-13.01,7.36-14.16-4.1,1.31-4.2,7.38-7.42,9.87-2.11.18-.46-2.81-1.38-4.25-1.65-2.57-3.99,3.47-4.42,4.81-.6,1.88-1,3.82-.9,5.81-1.85,1.88-13.45-6.6-15.48-8.18-16.21-12.65-26.73-28.78-26.92-50.09-.01-1.19.06-1.71,1.08-2.43,7,12.17,21.73,19.11,34.81,23.07,3.34,1.01,12.27,2.24,14.25,3.41,1.79,1.06,1.35,4.4,3.87,4.53,1.24.06,5.37-1.48,5.36-3.14,0-2.32-5.38-2.34-5.71-3.66-.94-4.38,5.32-22.28,1.45-24.6-2.1-1.26-7.99,2.05-11.03,2.41-8.55,1-36.87-3.94-43.61-9.2-5.03-3.93,3.03-5.24,1.66-6.96-.63-.79-3.25-.16-4.16.4-3.84,2.38-1.26,4.97-1.83,5.98-.32.58-3.59,2.26-4.6,3.84-2.23,3.48-2.26,11.39-2.15,15.56.2,7.55,2.96,16.04,1.46,23.29-.8.81-3.94,1.51-4.86.93-.52-.32-4.51-8.76-5.88-10.7-6.85-9.71-25.48-30.45-38.36-20.25-1.59,1.26-8.3,12.75-8.14,14.45.32,3.27,10.53,6.66,13.47,7.76,11.48,4.31,24.19,7.86,36.17,10.27l.74.85c2.83,6.08-6.01,29.55-7.95,36.96-2.87,10.99-4.36,21.76-4.31,33.17.03,7.14-.28,17.97.78,24.64.42,2.67,3.4,4.69-.75,6.4-.07,2.39,6.17,3.9,6.42.68.09-1.2-2.74-4.73-3.39-7.24-.3-1.17-1.69-7.99.16-7.91,3.19,4.58,5.98,10.06,11.65,12,1.67,1.88-4.48,1.47-4.93,2.11-.19,1.53,1.18,2.56,2.49,2.8l176.87.02v11.29H131.35l18.37-8.11c20.22-7.45,49.59-2.96,71.69-3.86,7.42-.3,8.5-1.1,16.25-.07,3.19.42,10.82,1.19,10.85-3.07-.92-4.11-15.06.15-17.92.31-1.5.08-2.93.53-2.5-1.44,4.94-.3,9.45-2.94,14.57-3.45,7.42-.74,15.45.51,22.86-1.51.99-1.03-.06-1.28-1.04-1.4-6.44-.82-13.3,1.12-19.78.71-16.87,1.72-37.59,13.76-52.97,1.4-14.38-11.56,12.23-13.59,19.59-15.71,6.66-1.93,25.4-7.1,28.95-12.71,1.61-2.56,1.43-5.69,1.24-8.62-.92-14.24-6.77-29.76-7.74-43.79-.13-1.83-.1-3.71.09-5.54.97-2.96,9.76,1.15,12.31,1.61,1.52.27,3.22-.13,4.81.14,8.69,1.44,16.43,2.72,25.41,2.13.48.17,2.76,4.18,2.95,4.82.59,2,.94,9.03,1.06,11.64.99,21.04-1.38,42.18-.74,63.22l-9.89.71c-.2.27.93,1.4,1.06,1.4h10.59c.25,0,3.8,1.51,4.59,1.78-1.87,2.76-.97,9.3,3.1,8.04,3.78-1.17-1.5-4.15-1.61-4.6-.2-.84,1.17-2.7,1.22-4.14.1-3-2.35-7.69-2.7-11.33-2-20.99,1.37-44.97-.02-66.34-.17-2.66-.97-5.46-1-8.17l-3.87-1.77c3.06-9.72,4.44-18.07-2.53-26.43-3.25-3.91-7.3-5.63-10.54-9.94-6.04-8.04-7.36-18.32-17.1-23.15-3.68-1.83-12.38-3.99-12.34,2.38.04,7.33,26.99,20.38,32.15,27.93,2.67,3.9,7.89,17.7,7.32,22.04-.53,3.96-5.83,6.45-9.37,6.88-7.25.89-25.55.21-31.69-3.65-4.09-2.57-4.95-11.16-5.9-15.99-2.35-11.92-6.16-34.95-1.95-46.01,2.2-5.78,10.68-8.79,16.39-9.73,12.05-1.97,20.73-.66,32.29-.14,4.06.18,30.06-.11,31.45,1.39.82.88-.08,1.25-.88,1.58-6.07,2.49-10.51,1.35-16.43,1.93-3.55.35-10.74,2.19-14.03,3.62-4.96,2.16-7.03,3.77-7.53,9.41-.98,11.04,1.4,19.64,10.28,26.36,3.37-2.24,1.77-6.09,3.97-9.29,3.53-5.11,11.41-5.34,16.64-7.36s10.95-6.53,16.29-9.13c7.37-3.57,15.13-6.53,22.57-9.96,24.98,9.84,51.29,21.92,78.82,18.98,1.12.45,1.19,1.34,1.18,2.38-.02,3.58-2.09,11.52-3.22,15.2-2.55,8.31-7.19,15.9-10.23,24.01.68.64,1.65.08,2.3-.89,4.07-6.13,8.98-18.6,10.91-25.78.99-3.69,1.22-11.15,3.35-13.59,1.57-1.8,3.4-1.94,2.9.76s-1.88,6.61-2.73,9.29c-2.9,9.18-8.24,19.24-10.75,28.07-.34,1.19-.45,2.32-.33,3.55,1.7.45,2.37-2.53,2.94-3.76,1.85-4.01,3.57-8.99,5.15-13.2,3.27-8.7,7.12-18.64,8.14-27.85,6.45-1.35,2.12,10.86,1.22,14.6-1.68,6.99-4.01,14.26-6.54,20.99s-6.48,13.47-8.79,20.51c.14.18,2.05-1.04,2.4-1.48,5.6-6.98,14.76-36.26,16.47-45.66.68-3.74-.16-9.57.14-10.97.13-.6,1.48-.63,2.02-1.67,2.01-3.93.26-11.81-.6-16.06l-4.89-2.17c4.96-2.23,3.81-12,3.56-16.97-1.11-21.65-5.14-49.1-10.26-70.22-1.26-5.2-7.82-28.27-12.02-30.34-1.27-.62-1.15.77-.92,1.62,1.21,4.35,5.33,10.41,7.12,15.48,6.69,18.92,10.53,47.06,12.51,67.26.41,4.19,2.73,29.28.61,30.6-.75.23-1.59.21-2.37.16-2.04-.13-10.93-2.36-13.24-3.06-7.37-2.24-14.33-5.85-19.95-11.1l-1.08,1.76c0,.89.59,1.23,1.08,1.77,1.95,2.15,12.46,10.19,15.15,11.68,7.18,3.97,14.62,4.49,22.68,4.85,1,.72,3.51,17.64-2.53,13.83-.21-4.03.21-15.83-6.51-12.9-5.44,2.38-1.81,12.61-6.13,12.82l-71.02-14.76c-.35-1.65.22-1.13.91-1.58,7.66-4.93,19.67-8.24,26.87-13.35.84-.6,1.91-1.14,1.91-2.35,0-1.88-8.69-7.23-10.68-8.41-7.91-4.7-16.39-9.9-24.3-1.84-3.07-3.18,3.94-9.47,6.67-10.96,7.32-4.01,17.93,2.71,24.77,6.37,1.81.97,13.55,7.57,13.95,8.27,1.83,3.19-3.8,3.73-5.85,5.51-.83.72-1.43,1.85.02,2.12,1.15.21,8.78-3.78,9.54-4.76,16.44-21.38,27.81-76.49,10.98-99.09-.59-.79.01-1.76-1.82-1.33.97,4.68,3.71,8.78,5.12,13.58,6.41,21.81,1.41,50.96-8.05,71.38-1.04,2.25-5.21,10.56-6.98,11.44-1.22.6-8.58-4.91-10.36-5.91-4.36-2.47-9.3-5.32-13.85-7.34-6.45-2.86-11.87-6.01-18.64-2.12-2.56,1.47-3.8,4.51-6.56,5.08-.73-7.18-3.78-14.65-4.89-21.58-3-18.68-1.33-54.05,11.24-68.77-5.27,9.89-7.87,19.94-8.5,31.38-.71,12.79-.3,31.96,2.22,44.43s8.47,3.07,14.49,2.53c2.29-.2,3.08,1.4,4.17,1.43,2.04.06,2.36-6.23,2.49-8.11.45-6.74.08-14.51-.76-21.18,2.49-14.74-6.99-47.9,6.86-57.44,1.07-.74,4.95-2.07,5.11-2.3.09-.12-.69-1.19-.32-2.02.6-1.35,3.74-2.52,3.91-3.21-3-5.16-3.89.62-5.25,1.82-.99.88-2.92.91-4.3,2.05-17.02,14.08-10.18,58.82-11.6,78.76-.3,4.2-2.1,12.41-4.77,4.01-6.36-19.99-4.55-59.84,8.69-77.04,2.92-3.8,7.88-5.98,8.06-11.35-2.21-1.95-13.6,8.95-15.55,10.92-1.32,1.33-4.03,4.27-4.92,5.31,5.01-9.4,16.01-25.75,28.46-22.61.78.2.48,1.82,2.23,2.15,1.19.23,3.65.08,4.98-.02.78-.06,2.34.41,1.75-1.05-1.43-3.52-20.21-5.33-24.17-6.9-2-.79-3.51-3.93-5.83-4.74-2.56,2.25,3.04,4.15.73,7.77-3.37,4.41-11.23,24.67-15.21,26.46-3.18,1.44-3.25-4.37-6.99-3.96-.93-1.07,2.16-5.89,2.89-7.22,6.04-10.89,17.43-21.78,19.58-34.07,1.31-7.48-.2-14.12-.65-21.47l3.91,1.42c5.08-2.17-1.86-6.53-2.82-8.52-1.09-2.26-1.45-7.29-2.48-10.23-6.7-19.19-21.55-26.15-41.33-24.32-4.31.4-12.52,2.25-15.19,5.63l7.76-1.05c-6.06,4.11-11.79,7.99-14.46,15.2-1.58,4.27-3.7,18.12-1.42,21.86,1.24,2.03,6.02,1.33,8.1,1.43l-4.95,3.16c-1.12.57-.14,1.7.38,1.78.98.14,11.16-2.4,13.5-2.73,7.33-1.04,14.77-2.02,22.14-2.21.73,2.26-3.37,4.01-1.04,5.65,2.75.57,12.35-8.46,12.4,2.47.03,6.53-3.74,7.47-8.2,10.92l.74,2.14c4.51-.92,9.18-5.99,10.06-10.4.98-4.85-2.31-9,4.86-9.33,10.9-.5,7.07,18.86,4.61,25.15l-23.09,36.22c-1.58-3.38-5.96-12.72-9.5-13.81-6.16-1.91-18.96,8.98-21.03-2.95-.84-4.87,1.1-5.49-4.35-8.41,1.53-5.92.09-8.76-6.43-7.99.11-7.5,6.1-16.39,2.44-23.96-2.1-4.35-8.67.26-12.32-.05,2.38-4.56,5.96-5.44,7-11,1.7-9.03.55-15.18,5.85-23.8.63-1.03,5.3-6.4,4.8-6.84-6.01,1.34-9.75,11.3-11.1,16.78-1.1,4.46-1.07,13.72-2.7,17.06-1.14,2.34-15.88,12.53-5.56,14.11,2.15.33,10.98,1.11,10.9-2.07h-9.89c-.28-1.61.07-1.13.9-1.58,1.86-1.01,8.63-2.92,10.05-1.25,3.77,4.41-2.59,17.57-3.14,22.85l7.41,3.28-.11,5.69c.15,1.91,2.93,1.6,3.61,2.75,1.17,1.96-.07,7.5,2.43,10.28,5.27,5.86,16.51-2.55,21.03-.62,1.71.73,8.22,11.41,7.94,13.29-.18,1.24-1.08.78-1.87.49-1.52-.55-6.39-2.51-6.95-3.66-.64-1.34.08-3.22-1.44-4.23-5.26-1-11.53,15.03-12.84,18.91-5.25,15.6-8.35,32.54-14.03,48.1-1.04,1.29-2.19,2.58-3.66,3.4-6.13,3.43-14.37-.38-12.79,10.33l.6.81c5.34.05,8.68,8.48,14.19,4.84l-1.46-5.91c1.52-1.49,11.37,7.87,12.69,9.54,1.94,2.46,4.28,5.37,3.47,8.73l-5.56.43c4.66,4.93,9.53,1,7.37-5.27-1.28-3.71-14.98-17.34-18.92-16.19-2.95,1.95-1.16,3.75-.6,6.07.22.9.41,2.18-.92,1.62-1.07-.45-8.86-7.1-8.86-8.11,0-3.84,5.86-2.9,7.98-3.34,3.54-.74,6.79-3.18,8.41-6.42,6.99-13.98,9.31-36.07,15.08-51.28.38-1.01,6.81-15.02,8.8-12.72-1.97,8.96-6.94,15.21-8.86,24.67-3.39,16.7,1.72,43.64,8.17,59.67.44,1.09.55,2.05,2.1,1.78.06-1.24.06-2.48-.17-3.71-1.49-8.15-5.06-17.37-6.7-25.77-2.7-13.82-4.6-29,4.04-41.11-.26,6.75-2.36,13.41-2.81,20.13-.5,7.43-.51,17.29,1.2,24.2,1.07,4.33,3.54,9.94,5.31,14.46,3.23,8.23,9.42,20.06,11.37,28.18.72,2.99.28,4.75-3.05,5.51-.41-2.25-1-4.91-1.8-7.03-.9-2.4-4.07-12.14-6.95-11.28-3.32,4.96-5.64,10.59-9.64,15.11-8.86,10.01-22.57,15.26-35.21,9.12-6.15-2.99-32.12-23.89-35.69-29.27-2.32-3.49,1.05-2.23,3.54-3.42,6.31-3.03,3.48-13.75,5.61-14.18l19.29,12.12-1.29,26.72,2.85-.46c1.75-4.91-.07-19.8,2.78-23.22,2.19-2.64,6.44,3.02,9.2,3.22-5.85,4.39-4.31,25.96,1.42,28.56s7.53-3.64,7.76-8.1c-2.23-.3-2.28,3.37-3.24,4.87-3.52,5.5-6.99-3.9-7.35-7.34-.91-8.55-.51-22.11,9.88-10.95-.04-2.87,3.55-1.04,2.86-3.88-2.77-2.81-5.99-2.58-9-3.72-4.1-1.56-8.07-6.88-13.59-6.18l-28.94-19.08c-3.96-6.33-3.45-14.47-8.5-20.41,3.38-6.59,4.82-18.61,10.63-23.27,4.86-3.9,12.2-7.19,17.55-11.4,6.69-5.26,12.81-11.4,16.94-18.91l-47.25-19.92c-1.33.98-1.43,2.48-1.79,3.91-4.85,19.09,1.38,23.35,3.13,39.99.94,8.89-2.82,14.51-5.53,22.57-6.32-.37-10.5-3.55-16.9.39-1.16,3.81,1.63,5.37,2.73,8.37-4.78-1.02-4.45,4.18-5.97,5.68-1.28,1.26-4.45,0-5.21,2.6-.92,3.14,2.41,5.5,2.05,7.55l-3.54,1.16c-1.07,2.78,2.17,3.77,2.64,5.4.45,1.54-.08,3.14.67,4.97s3.58,3.5,4.79,5.14l-65.41,165.45c-.35.76-.87,1.06-1.7,1.14-2.91.3-17.65-4.47-20.82-6.03-2.51-1.23-5.8-5.32-8.14-3.17-.87.8-4.74,9.73-5.42,11.52-4.95,12.98-8.98,31.55-5.32,45.12,1,3.71,3.34,6.91,4.75,10.42-2.63-1.03-4.89-2.51-7.73-3.21-2.7-.66-8.2-1.51-10.99-1.72-4.52-.33-26.82.77-28.61-.34-.95-.59-.64-.99-.4-1.83.84-2.96,8.97-7.51,11.29-12.03,1.85-3.6,5.31-17.22-2.04-11.92-4.09,2.95-7.97,8.07-9.86,12.73-.87,2.14-.41,6.28-3.21,6.32v-13.06c0-1.52,2.18-4.27,2.67-5.8,2.09-6.59,5.77-17.22.41-22.74-3.39-1.02-4.73,6.58-5.13,8.85-1.94,11.21-1.87,22.88-.78,34.16-1.23.19-1.56.04-2.45-.72-1.83-1.58-5.8-11.26-7.69-14.2-2.58-4-11.27-13.89-15.46-15.6-1.34-.55-3.64-1.1-4.84-.12-1.81,2.48,1.58,9.36,3.57,11.27,4.69,4.47,10.7.14,15.18,6.01,1.02,1.34,7.72,13.96,8.01,15.29.17.77.22,1.53.16,2.31-1.32-.59-3.25.71-3.89.71H.71l1.18,2c12.41-.41,25.72.96,38.04.15,6.67-.44,5.57-.96,12.65.01,9.65,1.33,20.72-.01,30.39.68,11.21.8,20.3,4.95,29.31,11.29ZM398.27,99.53c2.25-2.15-4.48-3.36-4.96-3.86-1.29-1.34-.06-4.66-3.5-3.9l-.71,3.49c2.43-.42,7.49,5.87,9.17,4.27ZM265.51,400.25c1.78-2.58-4.52-4.2-5.64-1.74-.72,1.59,4.67,3.15,5.64,1.74Z" style="fill:#fff;"/><path d="M112.28,412.26c-9.02-6.34-18.1-10.49-29.31-11.29-9.68-.69-20.74.65-30.39-.68-7.08-.98-5.98-.45-12.65-.01-12.32.81-25.63-.55-38.04-.15l-1.18-2h39.9c.64,0,2.57-1.29,3.89-.71.06-.78,0-1.54-.16-2.31-.29-1.33-6.98-13.96-8.01-15.29-4.48-5.87-10.49-1.54-15.18-6.01-2-1.9-5.38-8.78-3.57-11.27,1.2-.98,3.5-.43,4.84.12,4.19,1.71,12.88,11.6,15.46,15.6,1.89,2.94,5.86,12.62,7.69,14.2.89.77,1.22.91,2.45.72-1.08-11.28-1.16-22.95.78-34.16.39-2.28,1.73-9.88,5.13-8.85,5.36,5.52,1.68,16.16-.41,22.74-.49,1.53-2.67,4.28-2.67,5.8v13.06c2.79-.04,2.34-4.18,3.21-6.32,1.89-4.65,5.77-9.78,9.86-12.73,7.36-5.3,3.89,8.32,2.04,11.92-2.32,4.51-10.45,9.07-11.29,12.03-.24.84-.55,1.25.4,1.83,1.79,1.11,24.09.01,28.61.34,2.79.2,8.29,1.06,10.99,1.72,2.84.69,5.1,2.17,7.73,3.21-1.4-3.51-3.75-6.72-4.75-10.42-3.65-13.57.37-32.14,5.32-45.12.68-1.79,4.55-10.72,5.42-11.52,2.34-2.15,5.64,1.93,8.14,3.17,3.17,1.56,17.91,6.34,20.82,6.03.83-.09,1.34-.38,1.7-1.14l65.41-165.45c-1.21-1.64-4.03-3.31-4.79-5.14s-.22-3.43-.67-4.97c-.48-1.63-3.71-2.62-2.64-5.4l3.54-1.16c.36-2.05-2.96-4.41-2.05-7.55.76-2.6,3.93-1.34,5.21-2.6,1.52-1.5,1.19-6.7,5.97-5.68-1.1-3.01-3.89-4.56-2.73-8.37,6.39-3.93,10.58-.75,16.9-.39,2.71-8.06,6.47-13.68,5.53-22.57-1.76-16.64-7.99-20.9-3.13-39.99.36-1.43.46-2.93,1.79-3.91l47.25,19.92c-4.14,7.51-10.25,13.65-16.94,18.91-5.35,4.21-12.69,7.5-17.55,11.4-5.81,4.66-7.25,16.68-10.63,23.27,5.05,5.94,4.54,14.09,8.5,20.41l28.94,19.08c5.52-.7,9.48,4.62,13.59,6.18,3.01,1.14,6.23.91,9,3.72.69,2.85-2.89,1.02-2.86,3.88-10.39-11.17-10.79,2.4-9.88,10.95.37,3.44,3.83,12.84,7.35,7.34.96-1.5,1.01-5.17,3.24-4.87-.23,4.46-2.05,10.69-7.76,8.1s-7.27-24.18-1.42-28.56c-2.76-.2-7.01-5.87-9.2-3.22-2.84,3.43-1.03,18.31-2.78,23.22l-2.85.46,1.29-26.72-19.29-12.12c-2.13.43.7,11.15-5.61,14.18-2.48,1.19-5.85-.07-3.54,3.42,3.57,5.38,29.53,26.28,35.69,29.27,12.63,6.14,26.35.89,35.21-9.12,4.01-4.53,6.32-10.15,9.64-15.11,2.88-.86,6.05,8.89,6.95,11.28.8,2.12,1.39,4.78,1.8,7.03,3.33-.76,3.77-2.53,3.05-5.51-1.95-8.11-8.14-19.95-11.37-28.18-1.77-4.52-4.24-10.13-5.31-14.46-1.7-6.91-1.7-16.78-1.2-24.2.45-6.71,2.55-13.37,2.81-20.13-8.64,12.11-6.74,27.29-4.04,41.11,1.64,8.4,5.21,17.62,6.7,25.77.23,1.23.23,2.47.17,3.71-1.55.28-1.66-.69-2.1-1.78-6.45-16.03-11.56-42.98-8.17-59.67,1.92-9.46,6.89-15.71,8.86-24.67-1.99-2.3-8.42,11.71-8.8,12.72-5.77,15.22-8.09,37.3-15.08,51.28-1.62,3.24-4.87,5.68-8.41,6.42-2.12.44-7.97-.5-7.98,3.34,0,1.01,7.79,7.66,8.86,8.11,1.33.56,1.14-.72.92-1.62-.56-2.32-2.35-4.12.6-6.07,3.95-1.15,17.64,12.48,18.92,16.19,2.16,6.26-2.7,10.2-7.37,5.27l5.56-.43c.81-3.37-1.53-6.27-3.47-8.73-1.32-1.67-11.17-11.03-12.69-9.54l1.46,5.91c-5.52,3.64-8.85-4.79-14.19-4.84l-.6-.81c-1.58-10.71,6.67-6.9,12.79-10.33,1.47-.82,2.62-2.11,3.66-3.4,5.68-15.56,8.78-32.5,14.03-48.1,1.31-3.88,7.58-19.92,12.84-18.91,1.52,1.01.79,2.89,1.44,4.23.55,1.15,5.43,3.12,6.95,3.66.79.28,1.69.75,1.87-.49.28-1.88-6.23-12.56-7.94-13.29-4.53-1.93-15.76,6.48-21.03.62-2.5-2.78-1.26-8.32-2.43-10.28-.68-1.15-3.46-.84-3.61-2.75l.11-5.69-7.41-3.28c.54-5.28,6.91-18.44,3.14-22.85-1.43-1.67-8.19.23-10.05,1.25-.83.45-1.18-.02-.9,1.58h9.89c.09,3.18-8.75,2.4-10.9,2.07-10.32-1.58,4.42-11.77,5.56-14.11,1.63-3.35,1.61-12.61,2.7-17.06,1.35-5.48,5.09-15.44,11.1-16.78.5.45-4.17,5.82-4.8,6.84-5.3,8.62-4.15,14.77-5.85,23.8-1.04,5.55-4.62,6.44-7,11,3.65.31,10.21-4.3,12.32.05,3.66,7.58-2.32,16.46-2.44,23.96,6.52-.76,7.95,2.08,6.43,7.99,5.46,2.92,3.51,3.54,4.35,8.41,2.07,11.94,14.86,1.05,21.03,2.95,3.54,1.1,7.93,10.43,9.5,13.81l23.09-36.22c2.46-6.29,6.29-25.65-4.61-25.15-7.16.33-3.88,4.47-4.86,9.33-.89,4.41-5.56,9.48-10.06,10.4l-.74-2.14c4.46-3.45,8.23-4.38,8.2-10.92-.04-10.93-9.65-1.91-12.4-2.47-2.33-1.63,1.77-3.39,1.04-5.65-7.38.19-14.82,1.17-22.14,2.21-2.34.33-12.52,2.86-13.5,2.73-.52-.07-1.5-1.21-.38-1.78l4.95-3.16c-2.09-.1-6.86.6-8.1-1.43-2.28-3.74-.16-17.59,1.42-21.86,2.67-7.2,8.39-11.09,14.46-15.2l-7.76,1.05c2.68-3.38,10.88-5.23,15.19-5.63,19.78-1.84,34.63,5.13,41.33,24.32,1.03,2.94,1.39,7.97,2.48,10.23.96,1.99,7.91,6.35,2.82,8.52l-3.91-1.42c.44,7.35,1.96,13.99.65,21.47-2.15,12.3-13.55,23.19-19.58,34.07-.74,1.33-3.83,6.14-2.89,7.22,3.74-.42,3.81,5.39,6.99,3.96,3.97-1.79,11.84-22.05,15.21-26.46,2.31-3.61-3.29-5.52-.73-7.77,2.33.81,3.84,3.95,5.83,4.74,3.96,1.57,22.75,3.38,24.17,6.9.59,1.46-.97.99-1.75,1.05-1.33.1-3.79.24-4.98.02-1.75-.33-1.46-1.95-2.23-2.15-12.45-3.14-23.45,13.21-28.46,22.61.89-1.05,3.6-3.98,4.92-5.31,1.95-1.97,13.34-12.87,15.55-10.92-.17,5.37-5.13,7.56-8.06,11.35-13.24,17.2-15.05,57.05-8.69,77.04,2.68,8.41,4.47.19,4.77-4.01,1.42-19.93-5.41-64.68,11.6-78.76,1.38-1.14,3.31-1.18,4.3-2.05,1.36-1.2,2.25-6.98,5.25-1.82-.17.69-3.31,1.87-3.91,3.21-.37.83.4,1.9.32,2.02-.16.23-4.04,1.56-5.11,2.3-13.85,9.54-4.37,42.7-6.86,57.44.84,6.67,1.21,14.44.76,21.18-.13,1.88-.45,8.17-2.49,8.11-1.09-.03-1.88-1.64-4.17-1.43-6.02.53-11.91,10.23-14.49-2.53s-2.92-31.65-2.22-44.43c.63-11.44,3.23-21.5,8.5-31.38-12.58,14.72-14.24,50.09-11.24,68.77,1.11,6.94,4.16,14.41,4.89,21.58,2.76-.57,4.01-3.61,6.56-5.08,6.78-3.89,12.2-.75,18.64,2.12,4.55,2.02,9.48,4.87,13.85,7.34,1.78,1.01,9.14,6.52,10.36,5.91,1.77-.88,5.93-9.19,6.98-11.44,9.46-20.42,14.46-49.57,8.05-71.38-1.41-4.8-4.15-8.9-5.12-13.58,1.83-.43,1.23.55,1.82,1.33,16.83,22.6,5.46,77.72-10.98,99.09-.76.98-8.39,4.97-9.54,4.76-1.44-.27-.84-1.41-.02-2.12,2.05-1.77,7.69-2.31,5.85-5.51-.4-.7-12.14-7.3-13.95-8.27-6.83-3.67-17.45-10.38-24.77-6.37-2.74,1.5-9.74,7.78-6.67,10.96,7.91-8.06,16.39-2.86,24.3,1.84,1.99,1.18,10.67,6.53,10.68,8.41,0,1.22-1.07,1.76-1.91,2.35-7.2,5.12-19.21,8.42-26.87,13.35-.69.45-1.26-.07-.91,1.58l71.02,14.76c4.32-.21.68-10.43,6.13-12.82,6.72-2.94,6.3,8.86,6.51,12.9,6.04,3.81,3.54-13.11,2.53-13.83-8.07-.37-15.51-.88-22.68-4.85-2.69-1.49-13.2-9.53-15.15-11.68-.49-.54-1.08-.87-1.08-1.77l1.08-1.76c5.62,5.25,12.58,8.86,19.95,11.1,2.31.7,11.2,2.92,13.24,3.06.78.05,1.62.06,2.37-.16,2.12-1.32-.2-26.41-.61-30.6-1.98-20.2-5.82-48.34-12.51-67.26-1.79-5.07-5.9-11.13-7.12-15.48-.24-.85-.35-2.25.92-1.62,4.2,2.07,10.76,25.14,12.02,30.34,5.12,21.12,9.15,48.57,10.26,70.22.26,4.97,1.41,14.74-3.56,16.97l4.89,2.17c.86,4.25,2.61,12.14.6,16.06-.53,1.04-1.88,1.07-2.02,1.67-.31,1.4.53,7.23-.14,10.97-1.7,9.4-10.87,38.68-16.47,45.66-.35.44-2.26,1.65-2.4,1.48,2.31-7.04,6.14-13.47,8.79-20.51s4.86-14,6.54-20.99c.9-3.74,5.23-15.95-1.22-14.6-1.02,9.21-4.86,19.15-8.14,27.85-1.58,4.21-3.31,9.19-5.15,13.2-.57,1.23-1.24,4.21-2.94,3.76-.12-1.23-.01-2.35.33-3.55,2.51-8.83,7.86-18.89,10.75-28.07.85-2.68,2.25-6.7,2.73-9.29s-1.32-2.56-2.9-.76c-2.13,2.43-2.36,9.9-3.35,13.59-1.93,7.18-6.84,19.65-10.91,25.78-.65.97-1.61,1.53-2.3.89,3.03-8.11,7.67-15.7,10.23-24.01,1.13-3.68,3.2-11.62,3.22-15.2,0-1.04-.06-1.93-1.18-2.38-27.53,2.93-53.84-9.14-78.82-18.98-7.45,3.43-15.2,6.38-22.57,9.96-5.35,2.59-11,7.09-16.29,9.13s-13.12,2.25-16.64,7.36c-2.2,3.19-.61,7.04-3.97,9.29-8.89-6.72-11.26-15.32-10.28-26.36.5-5.64,2.57-7.25,7.53-9.41,3.29-1.43,10.48-3.27,14.03-3.62,5.92-.59,10.36.56,16.43-1.93.8-.33,1.69-.69.88-1.58-1.39-1.51-27.39-1.21-31.45-1.39-11.56-.52-20.24-1.83-32.29.14-5.72.94-14.2,3.95-16.39,9.73-4.2,11.07-.4,34.09,1.95,46.01.95,4.83,1.81,13.41,5.9,15.99,6.14,3.86,24.44,4.54,31.69,3.65,3.54-.43,8.84-2.92,9.37-6.88.58-4.34-4.65-18.13-7.32-22.04-5.16-7.55-32.11-20.6-32.15-27.93-.04-6.37,8.66-4.21,12.34-2.38,9.73,4.83,11.05,15.11,17.1,23.15,3.24,4.31,7.28,6.03,10.54,9.94,6.96,8.36,5.59,16.71,2.53,26.43l3.87,1.77c.03,2.72.83,5.52,1,8.17,1.39,21.36-1.98,45.35.02,66.34.35,3.64,2.8,8.33,2.7,11.33-.05,1.44-1.42,3.31-1.22,4.14.11.45,5.39,3.43,1.61,4.6-4.07,1.26-4.97-5.28-3.1-8.04-.79-.27-4.34-1.78-4.59-1.78h-10.59c-.13,0-1.26-1.13-1.06-1.4l9.89-.71c-.65-21.04,1.72-42.18.74-63.22-.12-2.62-.47-9.64-1.06-11.64-.19-.64-2.46-4.65-2.95-4.82-8.98.6-16.72-.69-25.41-2.13-1.58-.26-3.29.14-4.81-.14-2.55-.46-11.34-4.57-12.31-1.61-.18,1.83-.21,3.7-.09,5.54.97,14.02,6.82,29.54,7.74,43.79.19,2.93.38,6.06-1.24,8.62-3.54,5.62-22.28,10.79-28.95,12.71-7.36,2.13-33.97,4.15-19.59,15.71,15.38,12.36,36.1.32,52.97-1.4,6.47.4,13.33-1.53,19.78-.71.98.13,2.03.37,1.04,1.4-7.41,2.02-15.45.77-22.86,1.51-5.12.51-9.62,3.15-14.57,3.45-.44,1.97,1,1.52,2.5,1.44,2.87-.15,17-4.41,17.92-.31-.03,4.25-7.66,3.49-10.85,3.07-7.75-1.03-8.83-.24-16.25.07-22.1.9-51.47-3.58-71.69,3.86l-18.37,8.11h-19.07ZM348.84,23.3c-2.12-7.49-8.76-14.11-16.05-16.77-4.16-1.52-13.21-3.37-17.33-2.3-.66.17-.73,1.52-1.67,1.99-3.65,1.85-8.6,2.44-11.54,6.14,3.59.09,7.63-2.54,10.98-3.14,7.25-1.3,17.86-.67,24.26,3.2,4.66,2.82,7.3,7.44,11.35,10.88ZM296.69,35.9l53.55-3.07c-5.87-14.07-15.12-23.36-31.4-22.23-14.48,1-26.97,9.17-22.15,25.3ZM294.47,21.89c-2.05-.38-1.14.56-1.58,1.56-1.39,3.12-2.05,5.37-2.55,8.78-.36,2.46-1.55,9.05,1.26,9.83,21.17-.3,42.68-8.03,63.6-1.81-.55-3.85-6.39-4.71-9.5-4.96-7.18-.58-14.73,1.58-21.92,2.14l-27.4.58c-5.23-4.02-2.33-10.68-1.91-16.1ZM340.37,44.48l-7.77-.71v2.11c2.88-.88,4.77-1.37,6.71,1.4.9-.47,1.5-2.13,1.06-2.8ZM271.09,91.13l-41.24-16.36-2.15.72-1.72,12.04c4.81-.82.6-9.54,5.94-9.18l33.12,13.37c3.17,2.08-1.64,8.87-3.78,10.26-1.69,1.11-3.54.97-5.18,1.88-3.03,1.66-7.47,5.83-11.09,7.97-4.1,2.42-9.33,7.29-12.1,1.62-1.39-2.85-3.25-9.63-4.05-12.89-.65-2.65.73-6.8-2.85-8.79l5.57,27.96c-.12,1.92-.77,3.77-1.32,5.59-.92,3.06-5.65,12.2-4.62,14.43.34.74,1.57,1.44,2.14,2.13,1.55.34.87-.67,1.24-1.54,2.18-5.12,4.45-15.03,8-18.86,2.5-2.7,10.96-6.79,14.63-9.37,3.01-2.12,6.97-4.89,9.67-7.27,1.98-1.75,11.65-11.49,9.8-13.71ZM263.31,93.27l-28.14-11.74-4.33.07c-.7,2.45-1.47,6.07.4,8.09l24.93,11.12c2.99,1.4,8.79-4.99,7.14-7.54ZM351.65,98.82c2.36-3.74,6.07-8.37,9.54-11.29.91-.76,4.75-1.79,3.18-3.17-1.46-1.28-5.9-1.71-7.42-.36-.72.64-6.78,13.5-6.71,14.47l1.41.36ZM231.29,93.18c-.66.5-1.01.88-1.1,1.75-.13,1.22,3.46,15.46,4.19,17.02.32.67.36,1.37,1.22,1.65,2.97.98,14.82-8.3,17.89-10.18.06-2.15-19.26-8.72-22.21-10.24ZM350.2,187.71c-6.07-21.93-8.21-51.62.86-72.9,1.95-4.58,4.97-8.62,6.95-13.16-4.94,3.43-10.07,9.8-12.62,15.26-7.24,15.49-5.94,47.67-3.42,64.67.94,6.33,1,9.82,8.22,6.13ZM338.24,201.19c-.63-8.12-3.56-15.75-4.84-23.75-2.55-16.02-1.31-33.99,2.19-49.84.98-4.46,2.2-9.05,4.75-12.89-4.12-1.59-5.8-6.52-10.85-5.33-3.01,3.95-.66,6.06-.43,9.57.71,10.54-.21,21.54.7,32.13l-2.18-.42c-1.14-8.67-.31-17.28-2.08-26.04-.43-2.12-2.65-2.4-2.8-1.37-1.33,10.04-3.41,20.09-2.05,30.22,1.49,11.18,8.53,31.23,13.57,41.5,1.02,2.08,2.14,4.78,4.01,6.22ZM318.48,140.48c.37-3.19.36-6.98.87-10.07.66-4,3.17-10.85,3.39-14.29.09-1.45.26-2.9-1.09-3.86-4.68,1.62-2.02,4.25-2.09,6.42-.14,4.35-2.3,10.69-2.53,15.78-.06,1.43-.81,6.77,1.44,6.03ZM358.76,132.71h-2.15v52.96h2.15v-52.96ZM235,181.96c1.08-1.48,1.12-12.62.8-14.94-.37-2.69-3.95-13.4-5.21-15.97-3.01-6.13-10.82-13.06-18.03-12.68-.03.96-.24,1.37.47,2.15,1.39,1.53,6.55,3.17,7.65,5.63.95,2.12-.47,3.48-.24,4.51.1.44,4.84,3.46,4.84,7.15-1.04,4.26-6.08-.05-7.39.32-1.11.62-1.73,2.79-.65,3.6,12.95,6,4.12,7.83-5.05,7.01-4.05-.36-6.97-2.48-10.92-2.14l3.53,4.58-3.52,1.41c-.26,5.58,21.82,9.22,26.11,9.53.56-2.52-.78-5.06-.73-7.38.06-2.88,1.48-7,1.5-9.92.01-2.63-.98-6.59-1.13-9.53-.06-1.21-.88-1.8.72-2.81,4.23,3.98,1.08,29.28,5.01,30.29.39.1,2.02-.51,2.25-.82ZM338.24,207.53c.52-2.31-1.76-3.05-2.69-4.69-4.71-8.24-7.4-18.32-11.03-27.09l-8.14-30.32c.2,11.01-.65,23.69,2.79,34.26,1.02,3.14,3.19,6.53,4.39,9.73,2.42,6.46,4.99,12.92,6.94,19.54l4.83-1.99.51,1.33,2.4-.78ZM212.55,153.18c.28-4.05-3.4-3.7-6.36-3.52l.67,3.22,5.69.31ZM222.44,156.71c.95-2.49-5.64-5.66-6.35-4.93-.21,3.25,3.44,5.26,6.35,4.93ZM199.85,155.31c-.13,4.96,3.81,7.77,7.75,3.88-2.65-1.7-4.19-4.66-7.75-3.88ZM206.2,155.31c1.22,1.29,5.42,2.93,7.03,3.22,3.43.64,1.48-2.51-.46-3.09s-4.53.07-6.56-.14ZM220.32,166.59c1.5-2.05-9.14-4.7-10.45-4.78-3.8-.23-7.79,2-2.41,3.88,1.85.65,11.91,2.2,12.87.89ZM235.16,185.66c8.28,2.09,9.26-15.04,4.57-16.92-2.75.18-.98,3.94-1.12,5.2-.17,1.56-.57,3.89-.96,5.4-.65,2.56-1.54,4.01-2.49,6.32ZM205.99,179.49l-65.42,166.84,6.44,2.52,65.42-166.84-6.44-2.52ZM316.39,199.8c-4.42,10.46-14.12,20.8-25.28,23.8-1.13.3-8.87,1.67-9.65,1.58-11.61-1.25-25.56-14.03-34.32-21.52-3.05-2.6-11.06-11.4-13.46-12.67-1.38-.73-3.32-.72-4.88-1.47-2.17-1.05-13.67-7.43-14.78-6.64l-64.18,163.53.19,3.04c4.12,4.06,28.16,4.27,30.11,6.61.37.45.6.93.65,1.51.39,4.33-17.51,28.33-21.22,33.13-1.17,1.51-8.91,9.05-7.75,10.25l7.39-2.13,35.2-.81,1.18-1.99c-10.84-4.82-16.1-13.38-1.41-18.01,11.75-3.7,30.88-6.03,40.77-12.89,6.37-4.42,4.51-9.75,3.63-16.68-1.26-9.88-8.87-36.45-6.68-44.27.49-1.74,2.81-1.7,2.51-3.08-3.61-3.82-4.42-11.18-5.44-16.46-2.26-11.7-7.04-40.27-.19-49.93,6.27-8.86,33.3-10.27,43.42-9.52,4.17.31,8.58,1.83,12.7,2.13,4.43.32,21.71.67,25.13-.35,2.87-.86,12.04-8.18,12.64-11.36.67-3.54-1.71-11.61-3.64-14.64-.78-1.22-.95-1.45-2.64-1.19ZM232.32,187.77c-.37-3.35-4.78-4.92-7.04-2.47,2.01,1.5,4.45,2.82,7.04,2.47ZM372.82,218.8c.25-1.02-.01-1.67-.63-2.48-.65-.85-8.21-5.68-9.72-6.52-2.49-1.39-9.91-5.29-12.41-4.95-3.64.49-16.18,10.7-19.59,13.63-1.72,1.47-8.51,9.94-10.58,8.12-.31-1.33.75-1.67,1.41-2.47,3.8-4.62,9.54-7.46,12.71-12.71.11-.53-.71-.47-1.04-.34-2.06.81-11.6,10.55-14.15,12.68-1.09.91-2.44,1.9-3.86,2.15-.23.33,4.08,2.42,1.67,4.3-1.23.96-9.72,4.41-11.38,4.71-5.48.99-12.4.61-18.02,1.75-3.56.72-12.71,3.6-14.11,7.07-1.32,3.29-.57,14.43.71,17.98.59,1.63,5.84,8.54,7.22,7.25.58-12.39,13.7-11.95,22.04-15.74,5.51-2.51,11.37-6.74,17.26-9.58,17.42-8.4,35.3-15.94,52.48-24.84ZM427.93,232.26l-15.53-3.53c-.39,1.94.51,1.2,1.43,1.71,2.98,1.62,11.63,5.01,14.1,1.83ZM421.57,252.02l-70.61-13.41c-.39,2.16.67,1.08,1.67,1.47,19.89,7.85,45.46,17.36,67.02,13.86,1.28-.21,2.34-.38,1.92-1.92ZM427.06,249.73c2.44-2.44,1.95-11.42-2.17-10.35-2.32.6-3.45,7.65-3.14,9.38.38,2.14,3.98,2.3,5.32.97ZM263.4,264.72c-3.42-5.59-4.91-11.26-10.26-15.51-6.23-4.95-17.82-5.65-9.14,2.79,2.38,2.32,13.93,11.13,16.6,12.35.93.42,1.81.46,2.8.37ZM281.05,296.49c.77-5.51,1.24-13.81-4.93-16.23,1.79,4.42,2.04,9.32,3.51,13.78.3.92,0,2.2,1.42,2.45ZM267.63,307.08h10.59c.04-.72,2.46-5.69,1.05-5.65-2.13,1.17-3.91,2.73-6.2,3.68-1.69.7-4.59.28-5.44,1.97ZM283.17,308.49l-3.56,1.11c1.71,4.11,2.41,8.51,2.15,13.01.71.21,1.41-3,1.41-3.17v-10.94ZM129.93,369.2c.77-6.1,5.46-12.72,6.75-18.35.17-.75.64-1.4.02-2.15l-27.26-9.54c-.91.58-4.31,9.55-4.94,11.32-4.89,13.84-7.58,28.13-4.93,42.72,1.65.1,1.25.23,1.41-1.05.47-3.67-.28-8.05.08-11.93.53-5.69,2.21-13.33,3.65-18.94.8-3.12,4.56-16.08,6.88-17.19l16.42,4.79c1.8.53,3.38,1.85,3.79,3.72-.78,3.82-3.36,10.54-3.31,14.15.02,1.08.2,2.17,1.43,2.44ZM112.77,346.71c-.98.29-1.32,1.02-1.71,1.86-5.3,11.41-10.81,38.51-5.97,50.05,7.32,17.43,24.39,9.43,35.1.25,11.82-10.13,22.38-23.97,30.7-37.06-.33-1.48-15.44-4.65-17.67-3.55-1.43.71-12.38,17.7-15.17,20.84-1.83,2.06-6.14,7.07-9.04,6.25-7.13-2.01-.68-27.07.1-32.6-.65-2.7-13.42-5.12-16.35-6.03ZM139.29,349.62c-1.77,6.13-5.12,12.1-6.89,18.16-.35,1.18-2.58,8.52-.7,8.47,3.6-2.13,15.15-22.61,14.43-24.96-1.2-1.34-5.5-3.3-6.84-1.67ZM177.93,357.22c-6.01-.9-12.57-1.07-18.51-2.32-3.56-.75-6.92-2.23-10.44-3.04-2.42,4.46-4.38,9.19-6.92,13.58-2.18,3.76-7.89,15.57-13.01,12.91-.83-.43-.14-1.64-1.22-1.38l.72,5.62c1.19.15,2.36.15,3.49-.34,1.2-.52,8.13-9.22,9.49-10.99,2.55-3.33,9.01-15.26,12.74-15.38,5.04,1.03,13.78,1.07,18.27,3.57.76.42,1.14.46,1.09,1.49-.28,5.04-23.58,32-28.48,36.52-3.57,3.29-8.16,5.86-11.61,8.86-.81.7-1.74,1.09-1.46,2.41,8.6-1.89,15.77-7.68,21.54-14.11,4.46-4.96,22.48-28.73,24.02-33.87.35-1.16.48-2.33.31-3.53ZM54.25,353.8l-1.99-.83-2.83,20.47c1.31,1.54,3.75-5.62,3.92-6.31.51-2.03,1.67-12.17.89-13.33ZM281.76,362.85v26.12l4.24-.36c-2.24-4.02-1.59-9.49-2.13-14.1l-2.11-11.65ZM30.13,371.54c-.84-.98-8.6-7.13-9.4-7.2-3.64-.14,1.23,7.79,2.36,8.43l7.98,1.37c.12-.98-.32-1.88-.94-2.6ZM66.38,374.85c-1.18-1.24-7.26,5.21-8.07,6.4-.94,1.39-4.09,8.94-3.22,9.83,7.07-1.4,10.97-9.6,11.29-16.23Z"/><path d="M509.14,400.97l-176.87-.02c-1.3-.24-2.68-1.27-2.49-2.8.45-.65,6.61-.23,4.93-2.11-5.66-1.94-8.46-7.43-11.65-12-1.85-.08-.46,6.74-.16,7.91.65,2.51,3.48,6.04,3.39,7.24-.25,3.22-6.49,1.71-6.42-.68,4.15-1.71,1.18-3.73.75-6.4-1.06-6.67-.75-17.5-.78-24.64-.05-11.41,1.44-22.18,4.31-33.17,1.94-7.41,10.78-30.88,7.95-36.96l-.74-.85c-11.99-2.41-24.69-5.96-36.17-10.27-2.94-1.1-13.15-4.49-13.47-7.76-.17-1.69,6.54-13.19,8.14-14.45,12.88-10.2,31.5,10.54,38.36,20.25,1.37,1.94,5.36,10.38,5.88,10.7.92.57,4.06-.12,4.86-.93,1.5-7.24-1.26-15.74-1.46-23.29-.11-4.17-.08-12.08,2.15-15.56,1.01-1.58,4.28-3.27,4.6-3.84.56-1.01-2.01-3.61,1.83-5.98.91-.56,3.53-1.19,4.16-.4,1.36,1.72-6.69,3.03-1.66,6.96,6.73,5.26,35.06,10.19,43.61,9.2,3.05-.36,8.93-3.67,11.03-2.41,3.87,2.32-2.39,20.22-1.45,24.6.33,1.32,5.71,1.34,5.71,3.66,0,1.66-4.12,3.2-5.36,3.14-2.52-.13-2.08-3.47-3.87-4.53-1.98-1.17-10.91-2.39-14.25-3.41-13.08-3.96-27.81-10.9-34.81-23.07-1.02.72-1.09,1.24-1.08,2.43.19,21.31,10.71,37.44,26.92,50.09,2.03,1.58,13.63,10.06,15.48,8.18-.1-1.99.3-3.93.9-5.81.43-1.34,2.77-7.38,4.42-4.81.92,1.44-.73,4.43,1.38,4.25,3.22-2.49,3.32-8.56,7.42-9.87.99,1.15-5.94,13.05-7.36,14.16-.67.52-1.23.82-2.11.71l-1.1-1.83c-1.08-.96-2.36,2.47-.75,3.57,2.14,1.46,5.74-.44,7.7-1.56,2.06-1.17,2.99-3.12,5.04-3.77.22,6.24-8.51,7.13-13.11,8.42-.83,1.16.11,11.76,2.87,12.08,1.9,0,4.71-7.75,5.88-9.69,2.37-3.93,4.98-7.6,8.25-10.81,1.28-.52,1.27.79.93,1.64-1.02,2.55-5.3,5.47-6.23,8.6-.29.99.02,1.23,1,1,1.86-.44,4.2-1.91,6.05-2.43,2.68-.75,5.06-.87,7.96-1.93,13.81-5.05,26.79-22.2,43.21-19.56,7.17,1.16,12.82,21.35,11.53,27.68-.92,4.51-5.11,3.54-4.81,8.61.46,7.71,7.17,19.67,8.33,27.72,2.68,18.51-8.56,23.62-21.72,32.65h52.96v2.12ZM390.42,322.7c-11.43-4.17-24.6-14.48-31.98-24.15-10.19-13.35-10.72-26.51-13.25-42.52l-1.63-1.23c-3.8,0-3.8,10.34-3.92,13.13l2.16,26.09c-.46,2.43-4.11,2.95-6.06,3.82l-2.36,11.62.63.82c3.21-.28,3.4,1.91,3.41,4.92.05,17.92-8.82,38.2-10.44,55.78-.72,7.86-.34,13.52,6.01,18.68,5.53,4.49,11.38,4.93,18.35,4.26,9.17-.88,45.09-12.57,50.76-19.14,3.83-4.44.41-6.64-.65-11.2-.57-2.44-1.44-6.54-1.66-8.93-.27-3,.97-12.22-.27-13.49-3.39-3.48-3.11,2.51-3.68,3.37-.61.93-2.73.77-3.72,1.59-4.56,3.76-10.63,16.15-15.04,21.31-2.65,3.1-8.3,8.16-12.38,8.8-2.99.47-6.69-.18-9.84.05-4.1.3-16.16,3.4-17.29-2.5-2.61-13.64,16.49-15.22,25.65-19.5,7.27-3.4,13.25-9.02,20.94-11.2-.85-1.34-3.99-2.25-5.47-2.64-3.43-.9-22.35-2.57-16.82-9.41,4.74-5.85,22.16-.24,28.31,2.14,2.34-.18-.1-8.72.25-10.46ZM398.92,283.03l3.59-20.77-1.08-1.77c-7.81,3.65-17.25,3.89-25.46,1.47-9.07-.43-17.64-4.32-26.43-6.4,9.3,17.33,30.96,24.86,49.37,27.47ZM284.73,279.41c.94,1.63,28.56,10.52,32.5,11.62,3.23.9,8.64,2.83,11.65,3.2,1.25.15,1.5.16,2.29-.91-4.53-9.03-20.3-27.98-30.16-29.84-2.9-.55-7.88.3-10.15,2.23-1.47,1.26-7.12,11.98-6.14,13.7ZM458.3,307.79c4.67.04,5.97,6.54,6.34,10.24s-1.1,22.21,6.38,13.41c3.24-3.82,1.41-7.81.18-12.19-1.66-5.9-4.26-15.97-11.87-15.05-2.76.33-2.16,2.11-2.9,2.23-3.97.67-3.85-1.92-10.35,1.49-9.27,4.87-19.14,12.47-27.4,18.5-4.22,3.08-8.52,6.05-12.64,9.26-.29,1.35,1.73,1.56,2.42,2.51,2.13,2.98,4.23,12.13,5.14,16.04.54,2.33,1.55,14.11,3.38,14.23,7.41-5.03,17.2-8.49,24.33-13.78,2.71-2.01,9.09-11.8,10.4-12.24,3.76-1.26,7.94,7.73,9.05,10.53,3.28,8.26,4.6,12.47-4.8,16.36-8.38,3.47-19.44.83-17.43,13.98,2.78-.79,4.08-3.46,6.69-4.96,12.08-6.93,24.88,3.22,9.76,11.88-2.83,1.62-6.44,3.01-9.75,3.02-2.27,0-4.93-1.97-6.69.3.13,2.03,10.48,3.94,12.37,3.9,6.31-.12,23.75-12.81,24.37-19.43.43-4.59-6.04-17.9-7.83-23.27-2.33-7.04-5.9-17.51-6.32-24.74-.22-3.79.87-6.9.61-10.49-.3-4.16-2.43-7.81-3.45-11.74ZM324.12,375.56c2.37-16.09,7.22-31.78,9.7-47.85.47-3.02,1.57-8.46,1.63-11.14.03-1.24.05-2.32-1.09-3.13-5.12,10.04-6.87,23.18-8.63,34.43-1.1,7.01-2.61,15.44-3.01,22.4-.04.74-.4,7.5,1.4,5.29ZM413.81,326.14c-3.89.19-7.31,3-11.17,2.2l-3.65,7.68c.92.85,11.5-6,12.94-7.18.92-.75,2.15-1.21,1.88-2.7ZM363.84,334.45c3.26,2.91,19.62,4.13,24.48,6.88l4.99-2.17c.13-.58-.64-1.89-1.06-2.41-2.65-3.27-21.62-7.02-25.8-6.06-1.74.4-4.64,1.95-2.6,3.77ZM407.46,372.73c.59.66,7.27-3.02,6.39-5.26-1.9-7.27-2.3-14.99-4.78-22.12-.77-2.23-3.6-10.22-6.05-4.88-1,2.18,1.85,5.27,2.65,7.58,2.96,8.5,3.39,15.83,1.79,24.68ZM340.72,374.85c2.58.8,16.49,0,20.48,0,10.11,0,17.15-13.47,21.95-20.41.44-.64,9.22-10.46,6.29-10.66-9.52,1.43-16.35,8.2-24.59,12.13-6,2.87-17.23,5.15-21.91,8.45-2.36,1.66-5.59,9.44-2.22,10.48ZM441.35,398.84c-2.57-2.38-5.37-4.25-5.62-8.2-.14-2.14.47-9.43.76-11.84,1.56-13.02,17.61-6.98,23.63-14.49,2.97-3.71-3.15-16.58-7.11-19.16-2.19,0-5.41,5.8-6.73,7.44-1.04,1.29-4.16,3.64-4.6,4.63-.79,1.78,1.69,9.8-.33,12.67-2.37,1.7-4.35-8.13-2.82-9.88-.98-.1-1.91,0-2.85.32-3.47,1.16-13.8,7.49-17.84,9.7-2.02,1.11-3.88,3.24-5.86,4.03s-5.61.69-5.84.88c-.35.29-2.85,6.21-4.35,7.99-7.91,9.43-26.37,11.66-37.41,15.55l76.98.35ZM404.64,367.08c1.28-.27,1.31-1.39,1.43-2.44.58-5.14-.08-13.49-3.91-17.31l-.27,6.6,2.75,13.15ZM453.14,377.91c-5.13-.05-14.24,6.04-13.61,11.81,4.32,2.13,7.74,1.61,11.98-.13,2.96-1.22,9.41-4.77,8.12-8.62-1.21-1.55-4.54-3.03-6.48-3.05ZM401.1,379.09c-5.15,1.69-9.82,4.67-14.85,6.68-13.17,5.29-28.16,9.88-42.35,10.6,3.94,2.31,9.34,1.56,13.69.99,9.01-1.17,35.4-8.07,41.38-14.4.49-.52,2.62-3.4,2.12-3.87Z"/><path d="M398.27,99.53c-1.68,1.6-6.74-4.69-9.17-4.27l.71-3.49c3.44-.76,2.21,2.56,3.5,3.9.48.5,7.21,1.71,4.96,3.86Z"/><path d="M265.51,400.25c-.97,1.41-6.36-.15-5.64-1.74,1.11-2.46,7.42-.83,5.64,1.74Z"/><path d="M316.39,199.8c1.69-.27,1.86-.04,2.64,1.19,1.94,3.03,4.31,11.1,3.64,14.64-.6,3.17-9.77,10.5-12.64,11.36-3.41,1.02-20.7.67-25.13.35-4.12-.3-8.52-1.82-12.7-2.13-10.12-.76-37.15.66-43.42,9.52-6.84,9.66-2.06,38.23.19,49.93,1.02,5.28,1.83,12.64,5.44,16.46.3,1.38-2.02,1.34-2.51,3.08-2.2,7.82,5.41,34.39,6.68,44.27.89,6.93,2.74,12.26-3.63,16.68-9.9,6.86-29.02,9.19-40.77,12.89-14.7,4.63-9.43,13.19,1.41,18.01l-1.18,1.99-35.2.81-7.39,2.13c-1.16-1.19,6.58-8.73,7.75-10.25,3.71-4.81,21.61-28.8,21.22-33.13-.05-.58-.28-1.07-.65-1.51-1.95-2.35-25.99-2.55-30.11-6.61l-.19-3.04,64.18-163.53c1.11-.78,12.6,5.6,14.78,6.64,1.56.75,3.51.74,4.88,1.47,2.39,1.27,10.41,10.06,13.46,12.67,8.76,7.49,22.71,20.27,34.32,21.52.78.08,8.52-1.28,9.65-1.58,11.16-3,20.86-13.34,25.28-23.8Z" style="fill:#fff;"/><path d="M112.77,346.71c2.93.91,15.7,3.34,16.35,6.03-.78,5.53-7.23,30.59-.1,32.6,2.9.82,7.21-4.19,9.04-6.25,2.79-3.13,13.74-20.13,15.17-20.84,2.22-1.1,17.34,2.07,17.67,3.55-8.33,13.1-18.89,26.93-30.7,37.06-10.71,9.18-27.77,17.19-35.1-.25-4.85-11.54.67-38.64,5.97-50.05.39-.85.73-1.57,1.71-1.86Z" style="fill:#fff;"/><path d="M372.82,218.8c-17.18,8.9-35.06,16.45-52.48,24.84-5.89,2.84-11.75,7.07-17.26,9.58-8.34,3.8-21.46,3.35-22.04,15.74-1.39,1.29-6.63-5.62-7.22-7.25-1.28-3.55-2.04-14.7-.71-17.98,1.4-3.47,10.55-6.35,14.11-7.07,5.63-1.14,12.55-.76,18.02-1.75,1.65-.3,10.15-3.75,11.38-4.71,2.41-1.87-1.9-3.96-1.67-4.3,1.43-.25,2.77-1.24,3.86-2.15,2.55-2.13,12.1-11.87,14.15-12.68.33-.13,1.15-.19,1.04.34-3.17,5.24-8.91,8.09-12.71,12.71-.65.8-1.71,1.14-1.41,2.47,2.07,1.82,8.86-6.65,10.58-8.12,3.41-2.93,15.95-13.14,19.59-13.63,2.5-.34,9.93,3.56,12.41,4.95,1.5.84,9.06,5.67,9.72,6.52.61.81.88,1.46.63,2.48Z" style="fill:#fff;"/><rect x="86.89" y="260.72" width="179.21" height="6.92" transform="translate(-133.86 332.13) rotate(-68.6)" style="fill:#fff;"/><path d="M296.69,35.9c-4.81-16.13,7.68-24.3,22.15-25.3,16.27-1.13,25.53,8.16,31.4,22.23l-53.55,3.07Z" style="fill:#fff;"/><path d="M338.24,201.19c-1.86-1.44-2.99-4.15-4.01-6.22-5.04-10.27-12.08-30.31-13.57-41.5-1.35-10.13.72-20.19,2.05-30.22.15-1.03,2.37-.75,2.8,1.37,1.77,8.76.93,17.37,2.08,26.04l2.18.42c-.91-10.59.01-21.59-.7-32.13-.24-3.51-2.58-5.62.43-9.57,5.05-1.19,6.73,3.74,10.85,5.33-2.55,3.83-3.77,8.43-4.75,12.89-3.5,15.86-4.74,33.82-2.19,49.84,1.27,7.99,4.2,15.63,4.84,23.75Z" style="fill:#fff;"/><path d="M235,181.96c-.23.31-1.86.92-2.25.82-3.93-1.01-.78-26.3-5.01-30.29-1.6,1.02-.78,1.6-.72,2.81.15,2.94,1.15,6.9,1.13,9.53-.02,2.92-1.44,7.03-1.5,9.92-.05,2.31,1.28,4.86.73,7.38-4.29-.31-26.37-3.95-26.11-9.53l3.52-1.41-3.53-4.58c3.95-.35,6.87,1.78,10.92,2.14,9.17.82,18-1.01,5.05-7.01-1.08-.81-.45-2.98.65-3.6,1.32-.37,6.35,3.95,7.39-.32,0-3.69-4.74-6.72-4.84-7.15-.23-1.03,1.2-2.39.24-4.51-1.11-2.46-6.26-4.1-7.65-5.63-.71-.77-.5-1.19-.47-2.15,7.21-.38,15.02,6.55,18.03,12.68,1.26,2.57,4.84,13.29,5.21,15.97.32,2.33.28,13.46-.8,14.94Z" style="fill:#fff;"/><path d="M271.09,91.13c1.85,2.22-7.82,11.96-9.8,13.71-2.71,2.39-6.66,5.16-9.67,7.27-3.67,2.58-12.13,6.67-14.63,9.37-3.55,3.83-5.81,13.74-8,18.86-.37.86.31,1.88-1.24,1.54-.56-.69-1.8-1.39-2.14-2.13-1.02-2.23,3.7-11.36,4.62-14.43.55-1.82,1.19-3.68,1.32-5.59l-5.57-27.96c3.58,1.99,2.2,6.14,2.85,8.79.8,3.27,2.66,10.05,4.05,12.89,2.77,5.67,8,.8,12.1-1.62,3.62-2.14,8.06-6.31,11.09-7.97,1.64-.9,3.49-.77,5.18-1.88,2.14-1.4,6.95-8.18,3.78-10.26l-33.12-13.37c-5.34-.35-1.13,8.36-5.94,9.18l1.72-12.04,2.15-.72,41.24,16.36Z" style="fill:#fff;"/><path d="M177.93,357.22c.17,1.2.04,2.37-.31,3.53-1.54,5.15-19.56,28.91-24.02,33.87-5.77,6.43-12.94,12.22-21.54,14.11-.28-1.32.65-1.71,1.46-2.41,3.45-3,8.04-5.57,11.61-8.86,4.9-4.52,28.2-31.48,28.48-36.52.06-1.04-.33-1.07-1.09-1.49-4.49-2.5-13.23-2.54-18.27-3.57-3.73.11-10.18,12.04-12.74,15.38-1.36,1.77-8.29,10.46-9.49,10.99-1.13.5-2.3.49-3.49.34l-.72-5.62c1.08-.26.4.95,1.22,1.38,5.12,2.66,10.84-9.15,13.01-12.91,2.55-4.39,4.5-9.13,6.92-13.58,3.52.82,6.88,2.29,10.44,3.04,5.94,1.25,12.5,1.42,18.51,2.32Z" style="fill:#fff;"/><path d="M338.24,207.53l-2.4.78-.51-1.33-4.83,1.99c-1.95-6.62-4.52-13.08-6.94-19.54-1.2-3.2-3.37-6.58-4.39-9.73-3.44-10.57-2.59-23.25-2.79-34.26l8.14,30.32c3.63,8.77,6.33,18.85,11.03,27.09.94,1.64,3.21,2.38,2.69,4.69Z" style="fill:#fff;"/><path d="M263.31,93.27c1.65,2.55-4.16,8.94-7.14,7.54l-24.93-11.12c-1.86-2.03-1.09-5.65-.4-8.09l4.33-.07,28.14,11.74Z" style="fill:#fff;"/><path d="M129.93,369.2c-1.23-.27-1.42-1.35-1.43-2.44-.06-3.62,2.53-10.34,3.31-14.15-.41-1.87-1.99-3.19-3.79-3.72l-16.42-4.79c-2.32,1.11-6.08,14.07-6.88,17.19-1.44,5.61-3.12,13.25-3.65,18.94-.36,3.87.38,8.26-.08,11.93-.16,1.28.24,1.15-1.41,1.05-2.65-14.59.03-28.88,4.93-42.72.63-1.78,4.03-10.74,4.94-11.32l27.26,9.54c.62.76.15,1.4-.02,2.15-1.29,5.63-5.98,12.25-6.75,18.35Z" style="fill:#fff;"/><path d="M421.57,252.02c.42,1.55-.64,1.71-1.92,1.92-21.56,3.49-47.13-6.02-67.02-13.86-1-.39-2.06.68-1.67-1.47l70.61,13.41Z" style="fill:#fff;"/><path d="M231.29,93.18c2.95,1.51,22.27,8.09,22.21,10.24-3.07,1.88-14.92,11.16-17.89,10.18-.86-.28-.9-.98-1.22-1.65-.73-1.55-4.32-15.8-4.19-17.02.09-.87.44-1.25,1.1-1.75Z" style="fill:#fff;"/><path d="M294.47,21.89c-.43,5.42-3.32,12.08,1.91,16.1l27.4-.58c7.19-.56,14.74-2.72,21.92-2.14,3.12.25,8.95,1.12,9.5,4.96-20.92-6.22-42.43,1.51-63.6,1.81-2.81-.78-1.62-7.37-1.26-9.83.5-3.41,1.16-5.66,2.55-8.78.44-.99-.47-1.94,1.58-1.56Z" style="fill:#fff;"/><path d="M348.84,23.3c-4.06-3.43-6.69-8.06-11.35-10.88-6.4-3.87-17.01-4.5-24.26-3.2-3.36.6-7.39,3.23-10.98,3.14,2.94-3.7,7.89-4.29,11.54-6.14.93-.47,1.01-1.82,1.67-1.99,4.13-1.07,13.18.78,17.33,2.3,7.29,2.66,13.93,9.28,16.05,16.77Z" style="fill:#fff;"/><path d="M263.4,264.72c-.99.08-1.87.05-2.8-.37-2.68-1.21-14.22-10.03-16.6-12.35-8.68-8.44,2.91-7.74,9.14-2.79,5.34,4.25,6.83,9.91,10.26,15.51Z" style="fill:#fff;"/><path d="M139.29,349.62c1.34-1.63,5.64.33,6.84,1.67.72,2.35-10.83,22.83-14.43,24.96-1.88.06.35-7.28.7-8.47,1.77-6.06,5.12-12.03,6.89-18.16Z" style="fill:#fff;"/><path d="M66.38,374.85c-.32,6.63-4.22,14.83-11.29,16.23-.87-.89,2.28-8.45,3.22-9.83.81-1.19,6.89-7.63,8.07-6.4Z" style="fill:#fff;"/><path d="M351.65,98.82l-1.41-.36c-.07-.97,5.99-13.83,6.71-14.47,1.52-1.35,5.96-.91,7.42.36,1.57,1.38-2.27,2.41-3.18,3.17-3.47,2.92-7.18,7.55-9.54,11.29Z" style="fill:#fff;"/><path d="M235.16,185.66c.96-2.31,1.84-3.77,2.49-6.32.38-1.51.78-3.84.96-5.4.14-1.26-1.63-5.02,1.12-5.2,4.69,1.88,3.71,19.02-4.57,16.92Z" style="fill:#fff;"/><path d="M318.48,140.48c-2.26.74-1.51-4.6-1.44-6.03.23-5.09,2.39-11.43,2.53-15.78.07-2.17-2.6-4.8,2.09-6.42,1.35.96,1.18,2.42,1.09,3.86-.22,3.44-2.73,10.3-3.39,14.29-.51,3.09-.5,6.89-.87,10.07Z" style="fill:#fff;"/><path d="M427.06,249.73c-1.33,1.33-4.93,1.18-5.32-.97-.31-1.73.82-8.77,3.14-9.38,4.13-1.08,4.61,7.91,2.17,10.35Z" style="fill:#fff;"/><path d="M54.25,353.8c.78,1.17-.39,11.3-.89,13.33-.17.69-2.61,7.85-3.92,6.31l2.83-20.47,1.99.83Z" style="fill:#fff;"/><path d="M30.13,371.54c.61.71,1.06,1.62.94,2.6l-7.98-1.37c-1.13-.64-6-8.58-2.36-8.43.81.07,8.57,6.22,9.4,7.2Z" style="fill:#fff;"/><path d="M281.76,362.85l2.11,11.65c.54,4.62-.1,10.09,2.13,14.1l-4.24.36v-26.12Z" style="fill:#fff;"/><path d="M220.32,166.59c-.96,1.31-11.02-.25-12.87-.89-5.38-1.88-1.39-4.11,2.41-3.88,1.31.08,11.96,2.72,10.45,4.78Z" style="fill:#fff;"/><path d="M281.05,296.49c-1.42-.25-1.12-1.53-1.42-2.45-1.47-4.46-1.72-9.36-3.51-13.78,6.18,2.42,5.71,10.72,4.93,16.23Z" style="fill:#fff;"/><path d="M427.93,232.26c-2.47,3.18-11.12-.2-14.1-1.83-.92-.5-1.82.24-1.43-1.71l15.53,3.53Z" style="fill:#fff;"/><path d="M267.63,307.08c.85-1.69,3.75-1.27,5.44-1.97,2.29-.95,4.07-2.51,6.2-3.68,1.41-.03-1.01,4.93-1.05,5.65h-10.59Z" style="fill:#fff;"/><path d="M199.85,155.31c3.56-.78,5.1,2.17,7.75,3.88-3.94,3.89-7.88,1.09-7.75-3.88Z" style="fill:#fff;"/><path d="M283.17,308.49v10.94c0,.17-.69,3.38-1.41,3.17.25-4.5-.45-8.9-2.15-13.01l3.56-1.11Z" style="fill:#fff;"/><path d="M212.55,153.18l-5.69-.31-.67-3.22c2.95-.18,6.63-.52,6.36,3.52Z" style="fill:#fff;"/><path d="M222.44,156.71c-2.91.33-6.55-1.69-6.35-4.93.71-.72,7.3,2.45,6.35,4.93Z" style="fill:#fff;"/><path d="M206.2,155.31c2.03.21,4.65-.43,6.56.14s3.89,3.73.46,3.09c-1.6-.3-5.8-1.94-7.03-3.22Z" style="fill:#fff;"/><path d="M232.32,187.77c-2.6.35-5.04-.96-7.04-2.47,2.27-2.45,6.68-.89,7.04,2.47Z" style="fill:#fff;"/><path d="M340.37,44.48c.44.67-.16,2.33-1.06,2.8-1.94-2.77-3.83-2.28-6.7-1.4v-2.11s7.76.71,7.76.71Z" style="fill:#fff;"/><path d="M390.42,322.7c-.35,1.74,2.08,10.29-.25,10.46-6.14-2.38-23.57-7.99-28.31-2.14-5.53,6.83,13.39,8.51,16.82,9.41,1.48.39,4.62,1.3,5.47,2.64-7.68,2.18-13.66,7.8-20.94,11.2-9.16,4.29-28.26,5.86-25.65,19.5,1.13,5.89,13.19,2.8,17.29,2.5,3.15-.23,6.85.42,9.84-.05,4.08-.64,9.73-5.7,12.38-8.8,4.41-5.16,10.48-17.55,15.04-21.31.99-.82,3.11-.66,3.72-1.59.56-.86.28-6.85,3.68-3.37,1.24,1.27,0,10.49.27,13.49.22,2.39,1.09,6.5,1.66,8.93,1.06,4.56,4.48,6.76.65,11.2-5.67,6.57-41.59,18.26-50.76,19.14-6.97.67-12.82.24-18.35-4.26-6.35-5.16-6.73-10.82-6.01-18.68,1.62-17.58,10.49-37.86,10.44-55.78,0-3.01-.19-5.2-3.41-4.92l-.63-.82,2.36-11.62c1.96-.87,5.6-1.39,6.06-3.82l-2.16-26.09c.13-2.79.12-13.13,3.92-13.13l1.63,1.23c2.54,16.01,3.07,29.17,13.25,42.52,7.38,9.67,20.55,19.99,31.98,24.15Z" style="fill:#fff;"/><path d="M458.3,307.79c1.02,3.93,3.15,7.58,3.45,11.74.26,3.58-.83,6.7-.61,10.49.42,7.23,3.98,17.7,6.32,24.74,1.78,5.38,8.26,18.69,7.83,23.27-.62,6.62-18.06,19.31-24.37,19.43-1.89.04-12.24-1.87-12.37-3.9,1.76-2.26,4.42-.29,6.69-.3,3.31,0,6.91-1.4,9.75-3.02,15.11-8.65,2.32-18.81-9.76-11.88-2.6,1.49-3.91,4.17-6.69,4.96-2.01-13.15,9.06-10.51,17.43-13.98,9.39-3.89,8.08-8.09,4.8-16.36-1.11-2.8-5.29-11.79-9.05-10.53-1.31.44-7.69,10.23-10.4,12.24-7.12,5.29-16.92,8.75-24.33,13.78-1.83-.13-2.84-11.9-3.38-14.23-.91-3.91-3.01-13.06-5.14-16.04-.68-.95-2.71-1.17-2.42-2.51,4.12-3.21,8.42-6.18,12.64-9.26,8.26-6.02,18.13-13.63,27.4-18.5,6.5-3.42,6.38-.82,10.35-1.49.73-.12.14-1.9,2.9-2.23,7.61-.92,10.21,9.15,11.87,15.05,1.23,4.38,3.06,8.38-.18,12.19-7.47,8.8-6.01-9.71-6.38-13.41s-1.67-10.2-6.34-10.24Z" style="fill:#fff;"/><path d="M441.35,398.84l-76.98-.35c11.04-3.89,29.51-6.12,37.41-15.55,1.5-1.79,4-7.7,4.35-7.99.23-.19,3.97-.14,5.84-.88,1.97-.78,3.84-2.92,5.86-4.03,4.03-2.22,14.37-8.54,17.84-9.7.94-.31,1.87-.42,2.85-.32-1.53,1.75.45,11.58,2.82,9.88,2.02-2.87-.46-10.89.33-12.67.44-.99,3.57-3.35,4.6-4.63,1.32-1.64,4.55-7.44,6.73-7.44,3.96,2.58,10.08,15.45,7.11,19.16-6.02,7.52-22.07,1.48-23.63,14.49-.29,2.41-.9,9.69-.76,11.84.25,3.95,3.06,5.81,5.62,8.2Z" style="fill:#fff;"/><path d="M284.73,279.41c-.99-1.72,4.66-12.44,6.14-13.7,2.26-1.93,7.25-2.78,10.15-2.23,9.85,1.86,25.63,20.81,30.16,29.84-.79,1.07-1.04,1.06-2.29.91-3.01-.36-8.43-2.29-11.65-3.2-3.93-1.1-31.56-9.99-32.5-11.62Z" style="fill:#fff;"/><path d="M398.92,283.03c-18.42-2.61-40.08-10.14-49.37-27.47,8.78,2.08,17.36,5.98,26.43,6.4,8.21,2.42,17.64,2.18,25.46-1.47l1.08,1.77-3.59,20.77Z" style="fill:#fff;"/><path d="M340.72,374.85c-3.37-1.04-.13-8.82,2.22-10.48,4.68-3.31,15.91-5.59,21.91-8.45,8.24-3.94,15.06-10.71,24.59-12.13,2.93.2-5.84,10.02-6.29,10.66-4.8,6.94-11.84,20.41-21.95,20.41-3.99,0-17.9.8-20.48,0Z" style="fill:#fff;"/><path d="M324.12,375.56c-1.8,2.21-1.44-4.55-1.4-5.29.41-6.96,1.92-15.39,3.01-22.4,1.76-11.25,3.51-24.39,8.63-34.43,1.13.81,1.12,1.89,1.09,3.13-.06,2.68-1.17,8.13-1.63,11.14-2.48,16.07-7.33,31.76-9.7,47.85Z" style="fill:#fff;"/><path d="M453.14,377.91c1.94.02,5.27,1.51,6.48,3.05,1.29,3.85-5.16,7.4-8.12,8.62-4.24,1.74-7.66,2.26-11.98.13-.63-5.77,8.48-11.86,13.61-11.81Z" style="fill:#fff;"/><path d="M401.1,379.09c.5.47-1.63,3.35-2.12,3.87-5.97,6.33-32.36,13.23-41.38,14.4-4.35.57-9.75,1.32-13.69-.99,14.18-.73,29.17-5.31,42.35-10.6,5.02-2.02,9.7-4.99,14.85-6.68Z" style="fill:#fff;"/><path d="M363.84,334.45c-2.03-1.81.87-3.37,2.6-3.77,4.18-.96,23.15,2.79,25.8,6.06.42.52,1.19,1.83,1.06,2.41l-4.99,2.17c-4.86-2.76-21.22-3.98-24.48-6.88Z" style="fill:#fff;"/><path d="M407.46,372.73c1.6-8.85,1.17-16.18-1.79-24.68-.8-2.3-3.66-5.39-2.65-7.58,2.45-5.33,5.28,2.66,6.05,4.88,2.48,7.13,2.88,14.85,4.78,22.12.88,2.23-5.8,5.91-6.39,5.26Z" style="fill:#fff;"/><path d="M413.81,326.14c.27,1.49-.96,1.95-1.88,2.7-1.44,1.18-12.02,8.03-12.94,7.18l3.65-7.68c3.86.8,7.28-2.01,11.17-2.2Z" style="fill:#fff;"/><path d="M404.64,367.08l-2.75-13.15.27-6.6c3.83,3.82,4.49,12.16,3.91,17.31-.12,1.06-.15,2.18-1.43,2.44Z" style="fill:#fff;"/><path d="M350.2,187.71c-7.23,3.69-7.29.2-8.22-6.13-2.52-17-3.81-49.17,3.42-64.67,2.55-5.46,7.68-11.84,12.62-15.26-1.99,4.54-5,8.58-6.95,13.16-9.07,21.28-6.93,50.97-.86,72.9Z" style="fill:#fff;"/><rect x="356.61" y="132.71" width="2.15" height="52.96" style="fill:#fff;"/></g></svg>